<svg id="Capa_1" data-name="Capa 1" xmlns="http://www.w3.org/2000/svg" viewBox="0 0 485.58 451.58"><defs><style>.cls-1{fill:none;stroke:#000;stroke-miterlimit:10;stroke-width:4px;}</style></defs><title>logo_1</title><path class="cls-1" d="M192.22.73c6.69,0,12.26,1.78,16.91,5.33s7.08,8,6.81,13.07l-5,98c-.26,5.1-3.8,9.46-10.85,13.07s-15.24,5.34-24.61,5.34H106.72c-9.37,0-16.94-1.78-22.49-5.34s-7.45-8-5.7-13.07l33.6-98c1.74-5.1,5.8-9.45,12-13.07a36.89,36.89,0,0,1,19-5.33ZM145.76,25.67q-10.35,42.46-20.71,85H167q6.39-42.48,12.76-85Z" transform="translate(-5.62 1.27)"/><path class="cls-1" d="M282.23,48.7q5.43,43.43,10.82,86.86H246.29L242.85.73h46.34A928.19,928.19,0,0,0,337.81,88L316.54.73H350q23.1,67.41,46.21,134.83h-64.7A929.23,929.23,0,0,1,282.23,48.7Z" transform="translate(-5.62 1.27)"/><path class="cls-1" d="M85.73,293.92q-8.22,35.35-16.45,70.7H35.05l19.86-70.55q3.33-68.37,12.91-136H92.47c-3.59,33-8.46,66-12.71,98.91,12.77-33,25-66.15,38.23-98.91h24.65Q116.92,227.15,85.73,293.92Z" transform="translate(-5.62 1.27)"/><path class="cls-1" d="M201.58,158c4.84,0,8.86,2.72,12.21,8.18s5.1,12.21,4.88,20q-2,75.12-3.94,150.22a29.41,29.41,0,0,1-8,20c-5.1,5.46-11.17,8.18-18,8.18H138.39A19.4,19.4,0,0,1,122,356.4c-4.09-5.53-5.38-12.21-4-20q12.78-75.11,25.55-150.22a42.69,42.69,0,0,1,8.81-20c4.43-5.46,9-8.18,13.81-8.18Zm-33.82,38.22L152,326.4h30.64l9.77-130.18Z" transform="translate(-5.62 1.27)"/><path class="cls-1" d="M271.39,326.4H302q-8.85-84.19-17.68-168.4h24.15q13.73,89.2,27.44,178.42c1.2,7.81-.21,14.49-4.37,20A19.76,19.76,0,0,1,315,364.6H264.63c-6.86,0-12.88-2.72-17.9-8.18a29,29,0,0,1-7.65-20L237.32,158h24.14Z" transform="translate(-5.62 1.27)"/><path class="cls-1" d="M383.65,291q8.88,36.81,17.74,73.63H367.15Q347.31,261.32,327.45,158h53.34c4.84,0,9.84,2.72,15.17,8.18a52.24,52.24,0,0,1,12.13,20q9,26.63,17.89,53.25c3.7,10.25,5.35,22.57-.53,32.36a69.34,69.34,0,0,1,22.36,32.61q10.11,30.11,20.23,60.2H433.79q-8.64-30.09-17.29-60.2a20,20,0,0,0-6.11-9.63c-2.85-2.53-5.81-3.78-8.73-3.78Zm7.74-38.23a6.49,6.49,0,0,0,6.09-3.91c1.29-2.51,1.44-5.66.37-9.4l-12.46-43.23H360.82q6.8,28.28,13.63,56.54Z" transform="translate(-5.62 1.27)"/><path class="cls-1" d="M100.12,391.07h52.56q16.83,23.81,33.5,47.69c3.66-16.1,7.42-32.43,13.89-47.69h41.86q-15,28.55-29.68,57.23H164.78q-16.41-19.85-33-39.55c-3.14,13.17-6.26,26.35-9.27,39.55H75q-31.95-28.73-64.14-57.23H52.73c15.2,14.92,29.1,31.2,42.54,47.69Q97.58,414.93,100.12,391.07Z" transform="translate(-5.62 1.27)"/><path class="cls-1" d="M280,437.94c-3.34,4.25-5,6.32-8.1,10.37H235.93q19-28.72,38.37-57.23h55q11.71,28.5,23.12,57.23h-36c-2-4.05-3-6.12-5.15-10.37Zm7.71-10H306c-2.19-9.41-3.35-14.37-5.87-25-5.32,10.66-7.78,15.62-12.48,25Z" transform="translate(-5.62 1.27)"/><path class="cls-1" d="M422.22,430.47c-3.55,7.47-5.24,11-8.48,17.84H378.22c2.55-6.81,3.87-10.36,6.65-17.81q-14.22-19.8-28.71-39.42h42.23c4.94,9,7.46,19.35,9.31,29.38,10.9-10.33,22.08-20.7,34.38-29.38H484.3Q453.22,410.72,422.22,430.47Z" transform="translate(-5.62 1.27)"/></svg>