<svg id="Capa_1" data-name="Capa 1" xmlns="http://www.w3.org/2000/svg" viewBox="0 0 495.19 451.88"><defs><style>.cls-1,.cls-2{stroke:#000;stroke-miterlimit:10;}.cls-1{stroke-width:1.44px;}.cls-2{stroke-width:7.15px;}</style></defs><title>logo</title><path class="cls-1" d="M231.83,46.66c6.69,0,12.26,1.78,16.91,5.33s7.07,8,6.81,13.07l-5,98c-.26,5.1-3.8,9.46-10.85,13.07s-15.24,5.34-24.61,5.34H146.33c-9.37,0-16.94-1.78-22.49-5.34s-7.45-8-5.7-13.07l33.59-98c1.74-5.1,5.81-9.45,12-13.07a36.88,36.88,0,0,1,19-5.33ZM185.37,71.6q-10.35,42.47-20.71,85h41.91q6.39-42.48,12.76-85Z" transform="translate(-41.07 -45.93)"/><path class="cls-1" d="M321.84,94.63q5.42,43.43,10.82,86.86H285.9L282.45,46.66H328.8a924.94,924.94,0,0,0,48.62,87.26L356.15,46.66h33.41q23.1,67.41,46.21,134.83h-64.7A927,927,0,0,1,321.84,94.63Z" transform="translate(-41.07 -45.93)"/><path class="cls-2" d="M125.34,339.85q-8.22,35.36-16.45,70.7H74.66L94.52,340q3.32-68.37,12.91-136h24.65c-3.59,33-8.46,65.95-12.71,98.91,12.77-32.95,25-66.15,38.23-98.91h24.65Q156.52,273.07,125.34,339.85Z" transform="translate(-41.07 -45.93)"/><path class="cls-2" d="M241.19,203.93c4.84,0,8.86,2.72,12.21,8.18s5.09,12.21,4.88,20q-2,75.12-3.94,150.22a29.42,29.42,0,0,1-8,20c-5.1,5.46-11.17,8.18-18,8.18H178a19.4,19.4,0,0,1-16.42-8.18c-4.09-5.53-5.38-12.21-4.05-20q12.78-75.11,25.55-150.22a42.63,42.63,0,0,1,8.81-20c4.43-5.46,9-8.18,13.81-8.18Zm-33.82,38.22L191.59,372.33h30.64L232,242.15Z" transform="translate(-41.07 -45.93)"/><path class="cls-2" d="M311,372.33h30.64q-8.85-84.19-17.68-168.4h24.15q13.73,89.2,27.44,178.42c1.2,7.81-.2,14.49-4.37,20a19.76,19.76,0,0,1-16.56,8.18H304.24c-6.86,0-12.88-2.72-17.9-8.18a28.94,28.94,0,0,1-7.65-20l-1.77-178.42h24.15Z" transform="translate(-41.07 -45.93)"/><path class="cls-2" d="M423.26,336.92q8.87,36.81,17.74,73.63H406.76q-19.85-103.3-39.7-206.62h53.33c4.84,0,9.84,2.72,15.17,8.18a52,52,0,0,1,12.13,20q9,26.63,17.89,53.25c3.71,10.25,5.35,22.57-.53,32.36a69.31,69.31,0,0,1,22.36,32.61q10.11,30.11,20.23,60.2H473.4q-8.64-30.09-17.29-60.2A20.14,20.14,0,0,0,450,340.7c-2.85-2.53-5.81-3.78-8.73-3.78ZM431,298.69a6.51,6.51,0,0,0,6.09-3.91c1.29-2.51,1.44-5.66.37-9.4L425,242.15H400.42q6.81,28.28,13.63,56.54Z" transform="translate(-41.07 -45.93)"/><path class="cls-2" d="M139.73,437h52.56q16.82,23.81,33.5,47.69c3.66-16.1,7.42-32.43,13.89-47.69h41.86q-15,28.55-29.68,57.23H204.39q-16.42-19.85-33-39.55c-3.14,13.17-6.26,26.35-9.27,39.55H114.64Q82.68,465.5,50.5,437H92.34c15.2,14.92,29.1,31.2,42.54,47.69Q137.19,460.85,139.73,437Z" transform="translate(-41.07 -45.93)"/><path class="cls-2" d="M319.59,483.87c-3.34,4.25-5,6.32-8.11,10.37H275.54q19-28.73,38.37-57.23h55c7.81,19,15.56,38.09,23.11,57.23H356c-2-4.05-3-6.12-5.15-10.37Zm7.71-10h18.35c-2.19-9.41-3.35-14.37-5.87-25C334.46,459.53,332,464.49,327.3,473.9Z" transform="translate(-41.07 -45.93)"/><path class="cls-2" d="M461.83,476.4c-3.55,7.47-5.24,11-8.48,17.84H417.83c2.55-6.81,3.87-10.36,6.65-17.81q-14.22-19.8-28.71-39.42H438c4.94,9,7.45,19.35,9.31,29.38,10.9-10.33,22.08-20.7,34.38-29.38H523.9Q492.82,456.65,461.83,476.4Z" transform="translate(-41.07 -45.93)"/></svg>