<?xml version="1.0" encoding="utf-8"?>
<!-- Generator: Adobe Illustrator 24.0.2, SVG Export Plug-In . SVG Version: 6.00 Build 0)  -->
<svg version="1.1" id="Capa_1" xmlns="http://www.w3.org/2000/svg" xmlns:xlink="http://www.w3.org/1999/xlink" x="0px" y="0px"
	 viewBox="0 0 131.7 90.9" style="enable-background:new 0 0 131.7 90.9;" xml:space="preserve">
<style type="text/css">
	.st0{stroke:#000000;stroke-width:5.6565;stroke-miterlimit:33.3341;}
</style>
<g>
	<path d="M121.6,89.7c-6.2,0-9.8-3.2-10.1-7.7h5.9c0,1.5,0.8,3.5,4.5,3.7c2.5,0,3.9-1.5,3.9-2.6c-0.3-1.8-2.5-1.9-4.8-2.3
		c-2.5-0.4-4.5-0.9-5.9-1.5c-2-1-3.1-3.2-3.1-5.4c0-4,3.4-7.2,9.3-7.2c5.6,0,9.3,2.9,9.5,7.3h-5.6c0-1.1-0.3-3-3.6-3
		c-2.2,0-3.6,0.4-3.9,2c0,2.3,4.8,2.1,8.4,3c3.4,0.9,5.6,3,5.6,6.1C131.7,87.6,127.2,89.7,121.6,89.7 M14.3,52.5l19.3-11.2L44,59
		H17.9"/>
	<path class="st0" d="M54.9,89V66.6"/>
	<path d="M5.3,78.1c0,3.5,3.1,6.4,6.4,6.4c3.7,0,6.4-2.9,6.4-6.4c0-3.4-2.8-6.4-6.4-6.4C8.4,71.7,5.3,74.7,5.3,78.1 M11.5,89.7
		C5.3,89.7,0,84.6,0,78.1c0-6.4,5.3-11.5,11.5-11.5c2.5,0,4.8,0.6,6.7,2v-1.8h5.6v22.3h-5.6v-1.4C16.5,89.1,14,89.7,11.5,89.7
		 M86.3,59L59.4,12.1L78.7,0.8L112.4,59 M31.1,78.1c0,3.5,2.8,6.4,6.4,6.4c3.4,0,6.4-2.9,6.4-6.4c0-3.4-3.1-6.4-6.4-6.4
		C33.9,71.7,31.1,74.7,31.1,78.1 M37.3,89.7c-6.4,0-11.5-5.2-11.5-11.6c0-6.4,5-11.5,11.5-11.5c2.5,0,4.8,0.6,6.7,2v-9.5h5.6v30H44
		v-1.4C42,89.1,39.8,89.7,37.3,89.7 M37,32.4l19.6-11.1L78.2,59H57.7v5.6h-5.6V59 M128,64.7c-1.4,0-2.8-1.3-2.8-2.8
		c0-1.5,1.4-2.8,2.8-2.8c1.7,0,2.8,1.3,2.8,2.8C130.8,63.5,129.7,64.7,128,64.7 M128,59.6c-1.4,0-2.2,1.1-2.2,2.4s0.8,2.4,2.2,2.4
		c1.4,0,2.2-1.1,2.2-2.4C130.3,60.7,129.4,59.6,128,59.6"/>
	<path d="M128.6,63.5l-0.6-1.3h-0.6v1.3h-0.4v-3h1.3c0.3,0,0.8,0.4,0.8,0.9s-0.3,0.8-0.6,0.9l0.6,1.3 M128.1,60.9h-0.6v1h0.6
		c0.6,0,0.6-0.1,0.6-0.5C128.6,61.1,128.6,60.9,128.1,60.9 M91,78.1c0,3.5,2.8,6.4,6.4,6.4c3.4,0,6.4-2.9,6.4-6.4
		c0-3.4-3.1-6.4-6.4-6.4C93.8,71.7,91,74.7,91,78.1 M97.2,89.7c-6.4,0-11.5-5.2-11.5-11.6c0-6.4,5-11.5,11.5-11.5
		c2.5,0,4.8,0.6,6.7,2v-1.8h5.3v22.3h-5.3v-1.4C102,89.1,99.7,89.7,97.2,89.7 M65.3,78.1c0,3.5,3.1,6.4,6.4,6.4
		c3.6,0,6.4-2.9,6.4-6.4c0-3.4-2.8-6.4-6.4-6.4C68.4,71.7,65.3,74.7,65.3,78.1 M78.2,59.2h5.6v30h-5.6v-1.4
		c-1.7,1.3-3.9,1.9-6.4,1.9c-6.4,0-11.8-5.2-11.8-11.6s5.3-11.5,11.8-11.5c2.5,0,4.8,0.6,6.4,2L78.2,59.2z"/>
</g>
</svg>
