<?xml version="1.0" encoding="utf-8"?>
<!-- Generator: Adobe Illustrator 24.0.2, SVG Export Plug-In . SVG Version: 6.00 Build 0)  -->
<svg version="1.1" id="Capa_1" xmlns="http://www.w3.org/2000/svg" xmlns:xlink="http://www.w3.org/1999/xlink" x="0px" y="0px"
	 viewBox="0 0 131.7 90.9" style="enable-background:new 0 0 131.7 90.9;" xml:space="preserve">
<style type="text/css">
	.st0{stroke:#000000;stroke-width:5.3256;stroke-miterlimit:33.3341;}
	.st1{fill-rule:evenodd;clip-rule:evenodd;}
</style>
<g>
	<path d="M118.3,86.5c-5.8,0-9.2-3-9.5-7.2h5.6c0,1.4,0.8,3.3,4.2,3.5c2.4,0,3.7-1.4,3.7-2.4c-0.3-1.7-2.4-1.8-4.5-2.2
		c-2.4-0.4-4.2-0.8-5.6-1.4c-1.9-0.9-2.9-3-2.9-5.1c0-3.8,3.2-6.8,8.8-6.8c5.3,0,8.8,2.7,8.9,6.9h-5.3c0-1-0.3-2.8-3.4-2.8
		c-2.1,0-3.4,0.4-3.7,1.9c0,2.2,4.5,2,7.9,2.8c3.2,0.8,5.3,2.8,5.3,5.7C127.8,84.5,123.6,86.5,118.3,86.5 M17.3,51.5l18.2-10.5
		l9.8,16.7H20.7"/>
	<path class="st0" d="M55.5,85.8V64.8"/>
	<path d="M8.8,75.6c0,3.3,2.9,6,6,6c3.5,0,6-2.7,6-6c0-3.2-2.6-6-6-6C11.8,69.6,8.8,72.4,8.8,75.6 M14.7,86.5
		c-5.8,0-10.8-4.8-10.8-10.9c0-6,5-10.8,10.8-10.8c2.4,0,4.5,0.6,6.3,1.9v-1.7h5.3v21H21v-1.3C19.4,85.9,17,86.5,14.7,86.5
		 M85.1,57.6L59.8,13.4L77.9,2.8l31.7,54.8 M33.1,75.6c0,3.3,2.6,6,6,6c3.2,0,6-2.7,6-6c0-3.2-2.9-6-6-6
		C35.8,69.6,33.1,72.4,33.1,75.6 M39,86.5c-6,0-10.8-4.9-10.8-10.9S32.9,64.8,39,64.8c2.4,0,4.5,0.6,6.3,1.9v-8.9h5.3v28.2h-5.3
		v-1.3C43.4,85.9,41.3,86.5,39,86.5 M38.7,32.6l18.5-10.5l20.3,35.5H58.2v5.3h-5.3v-5.3 M124.4,63c-1.3,0-2.6-1.2-2.6-2.6
		c0-1.4,1.3-2.6,2.6-2.6c1.6,0,2.6,1.2,2.6,2.6C127,61.8,126,63,124.4,63 M124.4,58.2c-1.3,0-2.1,1-2.1,2.3c0,1.2,0.8,2.3,2.1,2.3
		c1.3,0,2.1-1,2.1-2.3C126.5,59.2,125.7,58.2,124.4,58.2"/>
	<path d="M124.9,61.8l-0.6-1.2h-0.6v1.2h-0.4V59h1.2c0.3,0,0.8,0.4,0.8,0.8s-0.3,0.8-0.6,0.8l0.6,1.2 M124.5,59.4h-0.6v0.9h0.6
		c0.6,0,0.6-0.1,0.6-0.5C124.9,59.6,124.9,59.4,124.5,59.4 M89.5,75.6c0,3.3,2.6,6,6,6c3.2,0,6-2.7,6-6c0-3.2-2.9-6-6-6
		C92.2,69.6,89.5,72.4,89.5,75.6 M95.4,86.5c-6,0-10.8-4.9-10.8-10.9s4.7-10.8,10.8-10.8c2.4,0,4.5,0.6,6.3,1.9v-1.7h5v21h-5v-1.3
		C99.9,85.9,97.7,86.5,95.4,86.5 M65.3,75.6c0,3.3,2.9,6,6,6c3.4,0,6-2.7,6-6c0-3.2-2.6-6-6-6C68.3,69.6,65.3,72.4,65.3,75.6
		 M77.5,57.8h5.3V86h-5.3v-1.3c-1.6,1.2-3.7,1.8-6,1.8c-6,0-11.1-4.9-11.1-10.9s5-10.8,11.1-10.8c2.4,0,4.5,0.6,6,1.9V57.8z"/>
</g>
<g>
	<path d="M188.4,49.7l-0.1-12.4l11.8-4.4L188.2,29l-0.3-12.2l-7.2,9.9L168.9,23l6.9,10.3L169,43.7l11.7-3.9L188.4,49.7z"/>
	<path d="M189.8,62.7h21.2l26.6-29.4L211,3.8h-21.1l25,29.5L189.8,62.7z"/>
	<path d="M142.5,78.6c0-3.8,3.3-7.6,7.7-7.6c3,0,6.4,3.4,6.4,3.4l-3.6,2.2c0,0-0.6-1.6-2.9-1.6c-2.3,0-3.6,1.9-3.7,3.6
		c0,1.9,1.5,3.6,3.5,3.6c1.5,0,3.2-1.6,3.2-1.6l3.2,2.3c0,0-2.4,2.9-6.2,2.9C146.1,85.6,142.5,83.2,142.5,78.6z"/>
	<path class="st1" d="M165.3,71.2c-4.2,0-7.4,3.3-7.4,7.3c0,4.1,3.3,7.3,7.4,7.3c4.1,0,7.5-3.3,7.5-7.3
		C172.8,74.4,169.5,71.2,165.3,71.2L165.3,71.2z M165.3,74.8c2.1,0,3.7,1.6,3.7,3.7c0,2-1.7,3.6-3.7,3.6c-2.1,0-3.7-1.6-3.7-3.6
		C161.6,76.5,163.3,74.8,165.3,74.8z M175.6,71.4v13.7h3.6v-7.4l5.9,7.4h3.5V71.4H185v8l-5.9-8H175.6z M191.6,71.4l4.9,13.7h5.3
		l4.9-13.7h-3.9l-3.6,10.9l-3.6-10.9H191.6z M209.2,71.4v13.7h11V82h-7.4v-2.3h6.7v-2.8h-6.7v-2.2h7.4v-3.3L209.2,71.4z M253.7,71.4
		v13.7h11V82h-7.4v-2.3h6.7v-2.8h-6.7v-2.2h7.4v-3.3L253.7,71.4z M224.3,71.6v13.5h3.2v-5.3h1.8l2.8,5.3h4.1l-2.8-5.8
		c3.6-2.2,2.9-6.7-1.1-7.8L224.3,71.6L224.3,71.6z M227.5,74.9h3.7c1.3,0,1.2,2,0,2h-3.7V74.9z"/>
	<path d="M238.1,83.2c0.2,0.8,3.5,2.4,6.8,2.4c3,0,5.4-1.4,5.4-4.3c0-3.5-4.2-4.3-4.2-4.3s-3.4-0.1-3.5-1.6c0-0.7,1-1.2,1.9-1.2
		c1.5,0,3.2,1.5,3.2,1.5l2.4-2.6c0,0-3.1-2.4-5.6-2.4c-2.4,0-6,1.6-6,5c0,2.8,4.1,4.2,4.1,4.2s4.2,0.5,4.2,1.8
		c0,0.9-1.5,1.2-2.4,1.2c-2.2,0-4.1-1.9-4.1-1.9L238.1,83.2z"/>
</g>
<g>
	<path d="M306.3,12.6c-0.1,0.1-0.3,0.4-0.4,0.7c-0.1,0.3-0.3,0.7-0.4,1c-0.5,1.4-0.7,1.8-0.9,2.3c-0.1,0.4-0.3,1-0.4,1.2
		c-0.1,0.3-0.3,0.8-0.4,1.2c-0.1,0.4-0.4,0.9-0.4,1.2c-0.1,0.3-0.3,0.8-0.4,1.1c-0.1,0.3-0.3,0.8-0.4,1.2c-0.3,0.8-0.6,1.6-0.9,2.3
		c-0.1,0.3-0.3,0.8-0.4,1.2c-0.1,0.4-0.4,0.9-0.4,1.2c-0.1,0.3-0.3,0.8-0.4,1.1c-0.1,0.3-0.3,0.8-0.4,1.2s-0.3,0.9-0.4,1.2
		c-0.1,0.3-0.3,0.8-0.4,1.2c-0.1,0.4-0.4,0.9-0.4,1.2s-0.3,0.8-0.4,1.2c-0.1,0.4-0.4,0.9-0.4,1.2c-0.3,0.7-0.6,1.6-0.9,2.3
		c-0.1,0.4-0.3,0.9-0.4,1.1c-0.1,0.3-0.3,0.7-0.4,1.1c-0.1,0.3-0.4,0.9-0.4,1.3c-0.3,0.8-0.7,1.7-0.9,2.3c-0.1,0.3-0.3,0.8-0.4,1.1
		c-0.1,0.4-0.4,0.9-0.4,1.3c-0.1,0.4-0.3,0.7-0.4,0.9c-0.1,0.1-0.1,0.4-0.1,0.5c0,0.3,0.1,0.3,4.1,0.3h4.1l0.1-0.4
		c0.1-0.2,0.4-1.1,0.7-1.9c0.3-0.8,0.7-1.9,0.9-2.2c0.1-0.4,0.4-1,0.4-1.2c0.1-0.5,0.3-1,1.3-3.5c0.4-1,0.8-2.1,0.9-2.3
		c0.2-0.7,0.6-1.7,0.7-1.9c0.1-0.1,0.1-0.4,0.2-0.6c0.1-0.3,0.1-0.4,0.3-0.3c0.1,0.1,0.1,1.3-0.5,9.9c-0.1,1.7-0.2,3.4-0.1,3.7
		l0.1,0.7l4.2,0.1c2.3,0,4.3,0,4.5-0.1c0.1-0.1,0.4-0.2,0.4-0.4c0.1-0.4,0.9-2.5,1.2-3.1c0.1-0.2,0.2-0.6,0.3-0.7
		c0.1-0.1,0.2-0.6,0.4-1s0.6-1.6,1-2.8c0.4-1.1,0.9-2.2,1-2.5c0.1-0.2,0.2-0.5,0.2-0.6c0-0.1,0.1-0.4,0.2-0.7
		c0.4-0.8,0.9-2.2,1.3-3.3c0.1-0.3,0.3-0.8,0.4-1.2s0.4-0.9,0.4-1.2c0.1-0.3,0.3-0.8,0.4-1.1c0.1-0.4,0.4-0.9,0.4-1.2
		c0.1-0.3,0.3-0.8,0.4-1.2c0.1-0.3,0.3-0.8,0.4-1.2c0.1-0.3,0.3-0.8,0.4-1.2c0.1-0.3,0.3-0.8,0.4-1.2c0.1-0.3,0.3-0.8,0.4-1.2
		c0.1-0.3,0.3-0.9,0.4-1.2c0.1-0.4,0.3-0.8,0.4-1.1c0.2-0.5,0.5-1.3,0.9-2.3c0.1-0.4,0.4-0.9,0.4-1.2c0.4-1.2,0.7-1.9,0.9-2.4
		c0.1-0.3,0.2-0.7,0.1-0.9l-0.1-0.4l-3.6-0.1c-2,0-3.8,0-4,0.1c-0.4,0.1-0.4,0-1.7,3.4c-0.1,0.3-0.3,0.8-0.4,1.2
		c-0.1,0.3-0.3,0.8-0.4,1.1s-0.3,0.8-0.4,1.2c-0.1,0.4-0.4,0.9-0.4,1.3c-0.4,1.2-0.6,1.6-1.1,2.9c-0.8,2.2-0.9,2.4-1.1,2.8
		c-0.1,0.2-0.2,0.6-0.3,0.7s-0.1,0.2-0.2,0.1s-0.1-0.9,0.1-2.2c0.1-1.2,0.2-2.7,0.2-3.3c0-0.7,0.1-2.2,0.2-3.4
		c0.2-2.8,0.4-5.4,0.2-5.7C314.8,12.3,306.6,12.4,306.3,12.6L306.3,12.6z M329.4,12.7c-0.1,0.1-0.3,0.4-0.4,0.7
		c-0.1,0.2-0.3,0.8-0.4,1.2c-0.1,0.4-0.4,1-0.4,1.2c-0.1,0.2-0.3,0.7-0.4,1.2s-0.4,1-0.4,1.2c-0.1,0.2-0.3,0.7-0.4,1.2
		c-0.1,0.4-0.4,1-0.4,1.2s-0.3,0.7-0.4,1.2c-0.1,0.4-0.4,1-0.4,1.2c-0.1,0.2-0.3,0.7-0.4,1.2c-0.1,0.4-0.4,1-0.4,1.2
		c-0.1,0.2-0.3,0.7-0.4,1.2c-0.1,0.4-0.4,1-0.4,1.2c-0.1,0.2-0.3,0.7-0.4,1.2c-0.1,0.4-0.4,1-0.4,1.2c-0.1,0.2-0.3,0.7-0.4,1.2
		c-0.1,0.4-0.4,1-0.4,1.2c-0.1,0.2-0.3,0.7-0.4,1.2c-0.4,1.1-0.7,1.9-0.9,2.3c-0.1,0.2-0.3,0.7-0.4,1.2c-0.1,0.4-0.4,1-0.4,1.2
		s-0.3,0.7-0.4,1.2s-0.4,1-0.4,1.2s-0.3,0.7-0.4,1.2c-0.1,0.4-0.4,1-0.4,1.2s-0.3,0.7-0.4,1.2s-0.4,1-0.4,1.2s-0.3,0.7-0.4,1.2
		c-0.6,1.5-1,1.4,3.7,1.4h4l0.2-0.4c0.1-0.2,0.3-0.6,0.4-0.8c0.1-0.2,0.3-0.7,0.4-1.2s0.4-1,0.4-1.2s0.3-0.7,0.4-1.2s0.4-1,0.4-1.2
		s0.3-0.7,0.4-1.2s0.4-1,0.4-1.2s0.3-0.7,0.4-1.2c0.1-0.4,0.4-1,0.4-1.2s0.3-0.7,0.4-1.2c0.1-0.4,0.4-1,0.4-1.2
		c0.1-0.2,0.3-0.7,0.4-1.2c0.1-0.4,0.4-1,0.4-1.2c0.1-0.2,0.3-0.7,0.4-1.2s0.4-1,0.4-1.2c0.1-0.2,0.3-0.7,0.4-1.2
		c0.1-0.4,0.4-1,0.4-1.2s0.3-0.7,0.4-1.2s0.4-1,0.4-1.2c0.1-0.2,0.3-0.7,0.4-1.2c0.1-0.4,0.4-1,0.4-1.2c0.1-0.2,0.3-0.7,0.4-1.2
		s0.4-1,0.4-1.2c0.1-0.2,0.3-0.7,0.4-1.2c0.1-0.4,0.4-1,0.4-1.2s0.3-0.7,0.4-1.2c0.2-0.4,0.4-1,0.5-1.1c0.1-0.2,0.3-0.7,0.4-1.2
		c0.7-1.9,0.7-2.1,0.5-2.2c-0.1-0.1-1.9-0.1-4-0.1C329.9,12.5,329.7,12.5,329.4,12.7L329.4,12.7z"/>
	<path d="M339,12.8c-0.1,0.2-0.3,0.5-0.4,0.7c-0.1,0.2-0.3,0.7-0.4,1.2c-0.1,0.4-0.4,1-0.4,1.2s-0.3,0.7-0.4,1.2
		c-0.1,0.4-0.4,1-0.4,1.3c-0.1,0.2-0.2,0.6-0.3,0.7s-0.4,1.1-0.8,2.2s-0.7,2-0.8,2.2s-0.2,0.4-0.3,0.7c-0.1,0.2-0.3,0.8-0.4,1.3
		c-0.1,0.4-0.4,1-0.4,1.2c-0.1,0.2-0.3,0.7-0.4,1.2c-0.1,0.4-0.4,1-0.4,1.2c-0.1,0.2-0.3,0.7-0.4,1.2c-0.1,0.4-0.4,1-0.4,1.2
		c-0.1,0.2-0.3,0.7-0.4,1.2c-0.1,0.4-0.4,1-0.4,1.2c-0.1,0.2-0.3,0.7-0.4,1.2c-0.4,1.1-0.7,1.9-0.9,2.3c-0.1,0.2-0.3,0.7-0.4,1.2
		s-0.4,1-0.4,1.2s-0.3,0.7-0.4,1.2c-0.1,0.4-0.4,1.2-0.6,1.7c-0.1,0.4-0.4,1-0.4,1.2c-0.1,0.1-0.3,0.7-0.5,1.3
		c-0.2,0.5-0.4,1.2-0.5,1.3c-0.7,1.7-1,1.6,3.6,1.6c4.1,0,4.1,0,4.3-0.3c0.1-0.1,0.2-0.4,0.2-0.6c0-0.1,0.1-0.4,0.2-0.7
		c0.1-0.2,0.3-0.7,0.4-1c0.1-0.4,0.4-0.9,0.4-1.2c0.1-0.3,0.3-0.8,0.4-1.1s0.3-0.8,0.4-1.2c0.1-0.4,0.3-0.9,0.4-1.2
		c0.1-0.3,0.5-1.3,0.9-2.3s0.7-2,0.9-2.2c0.7-1.9,0.9-2.2,1-2c0.1,0.1,0.1,2.6,0.2,5.5c0.1,2.9,0.1,6,0.2,6.8l0.1,1.5l5.4,0.1
		l5.4,0.1l-0.7,0.3c-0.4,0.2-0.8,0.4-1,0.4s-0.5,0.1-0.9,0.2c-0.4,0.1-1,0.3-1.6,0.4c-1.1,0.3-2.3,0.6-3.2,0.9
		c-0.4,0.1-1.1,0.3-1.6,0.4s-1.3,0.4-1.8,0.4c-1.4,0.4-2.4,0.7-3.2,0.9c-0.9,0.2-2,0.5-3.1,0.9c-0.4,0.1-1.2,0.3-1.7,0.4
		s-1.3,0.4-1.6,0.4c-0.4,0.1-1.1,0.3-1.6,0.4c-0.5,0.1-1.3,0.4-1.6,0.4c-0.4,0.1-1.1,0.3-1.6,0.4c-0.5,0.1-1.3,0.4-1.8,0.4
		c-0.4,0.1-1.2,0.3-1.6,0.4c-1.1,0.3-2.2,0.6-3.1,0.8c-0.4,0.1-1.2,0.3-1.7,0.4c-0.5,0.1-1.3,0.4-1.6,0.4c-0.4,0.1-1.1,0.3-1.6,0.4
		c-1.2,0.3-2.3,0.6-3.2,0.9c-0.4,0.1-1.1,0.3-1.6,0.4c-0.5,0.1-1.3,0.4-1.7,0.4c-2.4,0.7-2.9,0.7-5.7,0.7c-2.8,0-3.1-0.1-5.5-0.7
		c-0.4-0.1-1.3-0.5-1.8-0.7c-0.5-0.3-1.1-0.6-1.3-0.7c-0.2-0.1-1-0.8-1.8-1.6c-1-1.1-1.5-1.6-1.9-2.5c-1-2-1.3-3.4-1.4-5.7
		c-0.1-1.9,0.2-4,0.8-6.2c0.1-0.6,0.4-1.2,0.4-1.5c0.2-0.7,0.5-1.5,1.2-3c1-2.2,0.8-2.1-1.6,0.8c-2.9,3.6-4.8,6.3-7.2,10.1
		c-0.4,0.5-0.7,1.1-0.7,1.3c-0.1,0.1-0.2,0.4-0.4,0.7c-0.3,0.4-0.4,0.7-1.2,2.1c-1.3,2.5-2.5,5.2-3.1,7.4c-0.6,1.9-0.7,2.2-0.9,3.4
		c-0.4,1.7-0.3,5,0.1,6.3c0.6,2.2,1.2,3.3,2.5,4.7c1.4,1.5,4.3,3.5,5.6,3.9c0.1,0.1,0.7,0.2,1.1,0.4c2,0.7,3.2,1,6.6,1
		c3.2,0,3.9-0.1,6.5-0.7c1.5-0.4,3.6-1,4.3-1.3c0.2-0.1,0.7-0.3,1.3-0.4c0.4-0.1,1.3-0.5,2-0.7c0.6-0.2,1.3-0.5,1.7-0.7
		c0.3-0.1,0.8-0.3,1-0.4c0.2-0.1,1.6-0.7,3.1-1.3c3.3-1.3,3.4-1.4,4.2-1.8c0.3-0.1,0.8-0.4,1-0.4c0.2-0.1,0.7-0.3,1-0.4
		c0.7-0.3,1.4-0.6,2.1-0.9c0.3-0.1,0.7-0.3,1-0.4c0.7-0.3,1.5-0.6,2.1-0.9c0.3-0.1,0.7-0.3,1-0.4c1-0.4,2.2-0.9,3.1-1.3
		c0.3-0.1,0.8-0.4,1-0.4s0.7-0.3,1-0.4c0.6-0.3,1.3-0.6,2.1-0.9c1.2-0.5,1.8-0.7,3.5-1.5c0.5-0.2,1-0.4,1.1-0.4s0.4-0.1,0.6-0.2
		c0.7-0.4,0.4-0.2,7.5-3.3c3.6-1.6,6.7-2.8,6.8-2.9c0.4-0.2,1.3-0.5,2.1-0.9c0.4-0.1,1.2-0.4,1.6-0.7c1.3-0.6,1.7-0.7,2.2-1
		c1-0.4,2.5-1,2.8-1.3c0.1-0.1,2.8-1.2,5.8-2.5c3.1-1.3,5.7-2.5,5.8-2.5c0.2-0.1,1.1-0.4,1.8-0.7c0.5-0.2,1.6-0.7,1.9-0.8
		c0.1-0.1,3-1.3,6.3-2.7s6.2-2.7,6.3-2.7c0.2-0.1,0.5-0.3,1.8-0.7c0.6-0.3,1.6-0.7,1.9-0.8c0.1-0.1,1.8-0.8,3.7-1.6s3.6-1.6,3.6-1.6
		c0.1-0.1,0.2-0.1,0.3-0.1s0.6-0.2,1.1-0.4c0.5-0.2,1-0.4,1-0.4s0.5-0.2,1.1-0.4c0.5-0.3,1.2-0.5,1.4-0.7c1.9-0.8,2.2-1,2.1-1.3
		c-0.1-0.2-0.5-0.2-1.4,0.1c-1,0.3-1.9,0.5-3.2,0.9c-0.5,0.1-1.3,0.4-1.6,0.4c-0.4,0.1-1.1,0.3-1.6,0.4c-0.5,0.1-1.3,0.4-1.6,0.4
		c-0.4,0.1-1.1,0.3-1.6,0.4c-0.5,0.1-1.3,0.4-1.7,0.4c-0.4,0.1-1.1,0.3-1.6,0.4s-1.2,0.3-1.7,0.4c-0.5,0.1-1.3,0.4-1.7,0.4
		c-2.2,0.6-3.6,1-4.8,1.3c-0.5,0.1-1.3,0.4-1.6,0.4c-0.4,0.1-1.1,0.3-1.6,0.4c-0.5,0.1-1.3,0.4-1.6,0.4c-0.4,0.1-1.1,0.3-1.6,0.4
		c-0.5,0.1-1.3,0.4-1.7,0.4c-0.4,0.1-1.1,0.3-1.6,0.4c-0.4,0.1-1.2,0.3-1.7,0.4c-1.9,0.5-2.6,0.7-2.9,0.8c-0.2,0.1-0.4,0.1-0.6,0.1
		c-0.3,0-0.3-0.1-0.2-0.4c0.1-0.2,0.2-0.6,0.3-0.8s0.2-0.5,0.2-0.7l0.1-0.4l-4.5-0.1c-2.8,0-4.6-0.1-4.7-0.2
		c-0.1-0.1-0.1-0.3-0.1-0.5c0.4-1.3,1.9-5.4,2.4-6.4c0.1-0.3,0.2-0.6,0.2-0.7c0-0.1,0.1-0.4,0.3-0.5c0.3-0.2,0.9-0.2,4.1-0.2
		c4.2,0,3.9,0.1,4.3-1c0.1-0.4,0.4-1,0.5-1.4c1.2-3.1,1.3-3.6,1.3-3.9s-0.5-0.2-3.7-0.2c-3,0-3.7-0.1-3.7-0.2
		c-0.1-0.2,1.3-4,2.1-5.9c0.1-0.3,0.2-0.6,0.2-0.7c0-0.4,0.7-0.5,4.7-0.5h3.9l0.2-0.5c0.1-0.3,0.3-0.7,0.4-0.9s0.3-0.7,0.4-1.2
		c0.1-0.4,0.4-1,0.4-1.2c0.1-0.2,0.3-0.7,0.4-1.2s0.3-0.8,0.2-0.9s-5.7-0.1-12.6-0.1c-11.8,0-12.5,0-12.8,0.2c-0.3,0.3-5.1,6-6,7.2
		c-0.3,0.4-0.7,0.8-0.8,1s-0.5,0.6-0.7,0.8c-0.5,0.6-0.7,0.4-0.4-0.3c0.1-0.3,0.3-0.7,0.4-1.1c0.8-2.2,0.9-2.5,1.8-4.6
		c0.4-1,0.7-2,0.9-2.2c0.3-0.6,0.3-0.8,0-1c-0.1-0.3-2-0.4-4.1-0.4h-3.9L339,12.8z M360.1,14.4c-0.1,0.2-0.2,0.7-0.4,1.1
		c-0.1,0.4-0.4,1-0.4,1.2s-0.3,0.7-0.4,1.2c-0.1,0.4-0.4,1-0.4,1.2c-0.1,0.2-0.3,0.7-0.4,1.2c-0.1,0.4-0.4,1-0.4,1.2
		c-0.1,0.2-0.3,0.7-0.4,1.2s-0.4,1-0.4,1.2c-0.1,0.2-0.3,0.7-0.4,1.2c-0.1,0.4-0.4,1-0.4,1.2c-0.1,0.2-0.3,0.7-0.4,1.2
		s-0.4,1-0.4,1.2c-0.1,0.2-0.3,0.7-0.4,1.2c-0.1,0.4-0.4,1-0.4,1.2c-0.1,0.2-0.3,0.7-0.4,1.2c-0.1,0.4-0.4,1-0.4,1.2
		s-0.3,0.7-0.4,1.2c-0.1,0.4-0.4,1-0.4,1.2c-0.1,0.4-0.4,1.2-0.9,2.3c-0.1,0.4-0.4,1-0.4,1.2s-0.3,0.7-0.4,1.2
		c-0.1,0.4-0.4,1-0.4,1.2s-0.3,0.7-0.4,1.2s-0.4,1-0.4,1.3c-0.1,0.4-0.5,0.7-0.7,0.6c0,0-0.1-3.4-0.2-7.4s-0.2-7.9-0.2-8.5
		c-0.1-1.3-0.1-1.3,1-2.5c0.4-0.4,1-1.1,1.4-1.6c0.4-0.4,1.4-1.6,2.2-2.5c0.8-0.9,1.9-2.1,2.5-2.6c0.4-0.5,1.4-1.6,2.2-2.4
		c0.7-0.7,1.6-1.7,1.9-2.1C360,13.9,360.3,13.9,360.1,14.4z"/>
</g>
<g>
	<path d="M490.3,12c-0.4,0.1-0.8,1.6-1.6,2.4c-0.6,0.6-1.3,0.6-1.7,1.2c-0.1,0.3-0.1,0.7-0.3,1.2c-0.3,0.9-1.4,1-1.4,1.9
		c0,1,1,1.2,1.8,1.9c0.6,0.6,0.7,1,1.5,1.2c0.7,0.2,1.7-0.6,2.5-0.3c0.8,0.2,1.4,0.4,1.6,1.2c0.1,0.7,0,1.8-0.9,1.7
		c-0.3,0-1.6-0.5-3.2-0.3c-1.9,0.2-4.1,0.8-4.4,3c-0.1,1.2,1.4,2.6,2.8,2.3c1-0.2,0.6-1.4,1.1-1.9c0.7-0.8,4.7,2.5,8.5,2.5
		c1.6,0,2.8-0.4,3.9-1.7c0.1-0.1,0.3-0.3,0.4-0.3c0.1,0,0.4,0.1,0.6,0.2c3,2.4,5.3,7.3,16.4,7.4c1.6,0,3.4,0.8,4.8,2.1
		c1.3,1.2,2.1,3.1,2.8,5c1.1,2.8,3.1,5.6,6.1,8.7c0.1,0.1,2.7,2.1,2.8,2.3c0,0,0.2,0.5,0.1,0.7c-0.1,1.9-0.3,7.2,3.6,7.4
		c1,0.1,0.7-0.6,0.7-1.1c0-1-0.2-1.9,0.3-2.8c0.7-1.3-1.4-1.9-1.4-4.7c0.1-2.1-1.7-1.8-2.6-3.4c-0.6-1-1-1.4-1-2.5
		c0.2-6.5-1.4-10.7-2.1-11.7c-0.6-0.8-1.1-1.1-0.6-1.4c3.3-2.2,4.1-4.3,4.1-4.3c1.8-4.2,3.4-8,5.6-9.6c0.4-0.3,1.6-1.2,2.3-1.5
		c2.1-1,3.2-1.6,3.7-2.1c1-0.9,1.7-2.8,0.8-4c-1.1-1.4-3.1-0.3-3.9,0.2c-6.1,3.6-7,10-9.1,13.8c-1.7,3-4.5,5.1-6.9,5.3
		c-1.9,0.1-3.9-0.2-5.8-1.1c-4.8-2.1-7.4-4.8-8-5.3c-1.3-1-11.3-10.9-19.5-11.3c0,0-1-2-1.2-2.1c-0.6-0.1-1.2,1.2-1.7,1.4
		C491.4,13.4,490.7,11.9,490.3,12 M454.4,70.9c-0.8,0-1.4-0.6-1.4-1.4V44h-8.3v28c0,1.4,1.1,2.5,2.5,2.5h14.6c1.4,0,2.5-1.1,2.5-2.5
		V44h-8.4v25.4C455.9,70.2,455.2,70.9,454.4,70.9 M482.5,44h-12.7c-1.5,0-2.8,1.2-2.8,2.8v27.8h8.4V49.1c0-0.8,0.6-1.4,1.4-1.4
		c0.8,0,1.4,0.6,1.4,1.4v25.5h8.3V49.1c0-0.8,0.6-1.4,1.4-1.4c0.8,0,1.4,0.6,1.4,1.4v25.4h8.4V46.8c0-1.5-1.2-2.8-2.8-2.8H482.5z
		 M433.5,49.1c0-0.8-0.7-1.4-1.4-1.4h-1.4v15.4h1.4c0.8,0,1.4-0.6,1.4-1.4V49.1z M439.1,66.9h-8.5v7.6h-8.4V44h16.8
		c1.5,0,2.7,1.2,2.7,2.8v17.3C441.9,65.6,440.6,66.9,439.1,66.9 M526.6,67.7c-1.7,0-3.1,1.4-3.1,3.2c0,1.8,1.4,3.2,3.2,3.2
		s3.1-1.4,3.1-3.2C529.7,69.1,528.3,67.7,526.6,67.7L526.6,67.7z M530.3,70.9c0,2.1-1.7,3.8-3.7,3.8s-3.7-1.7-3.7-3.8
		c0-2.1,1.7-3.8,3.7-3.8S530.3,68.8,530.3,70.9"/>
	<path d="M526.2,70.7c0.6,0,0.9-0.2,0.9-0.6c0-0.3-0.3-0.6-0.9-0.6h-0.1v1.2C526.1,70.7,526.2,70.7,526.2,70.7z M528.3,73.1h-1
		l-1.2-1.7v1.7h-0.8v-4.3h0.8c1.2,0,1.8,0.4,1.8,1.3c0,0.6-0.3,1-0.9,1.2h-0.1L528.3,73.1z M511.9,63.1v-14c0-0.8-0.6-1.4-1.4-1.4
		c-0.8,0-1.4,0.6-1.4,1.4v14H511.9z M511.9,74.5v-7.6h-2.8v7.6h-8.4V46.8c0-1.5,1.2-2.8,2.8-2.8h14.1c1.5,0,2.8,1.2,2.8,2.8v27.8
		L511.9,74.5z"/>
</g>
<path d="M561.2,17c4.2,0,8.5,0,12.7,0c2.2,0,4.4,0.8,5.9,2.3c1.3,1.2,2.1,3,2.1,4.8c0.1,1.7-0.5,3.3-1.5,4.6c-0.8,1-2.1,1.8-3.3,2.2
	c1.3,0.3,2.6,1.1,3.4,2.3c0.6,0.9,0.8,1.9,0.8,3c0,1.9,0,3.9,0,5.8c-1.8,0-3.6,0-5.4,0c0-1.5,0-3.1,0-4.6c-0.1-1.1-0.3-2.3-1.1-3.1
	c-0.8-0.8-2.1-1.1-3.2-1.2c-1.2,0-2.4,0-3.7,0c0-1.5,0-2.9,0-4.4c1.7,0,3.5,0,5.3,0c1.2,0,2.4-0.8,2.9-1.9c0.7-1.5,0.5-3.5-0.8-4.6
	c-0.8-0.6-1.7-0.8-2.6-0.8c-2.1,0-4.4,0-6.5,0c0,5.3,0,10.6,0,16h-5C561.2,30.6,561.2,23.8,561.2,17z M625.7,17c1.7,0,3.5,0,5.3,0
	c0,5.4,0,10.8,0,16.2c1.3,0,2.7,0,4,0c1.7,0,3.2-1.5,3.5-3.2c0.3-1.8-1-3.7-2.8-4.1c-1-0.1-1.9,0-2.9-0.1c0-1.5,0-2.9,0-4.4
	c1.1,0,2.3,0,3.4,0c2.4-0.1,4.7,1.2,6.1,3.1c1.4,1.9,1.9,4.4,1.4,6.7c-0.6,2.8-3.1,5-5.8,5.9c-1.4,0.4-2.8,0.4-4.3,0.4h-7.8
	C625.7,30.6,625.7,23.8,625.7,17z M667.1,17c1.8,0,3.5,0,5.3,0c0,3.2,0,6.5,0,9.8c1.1-0.1,2.2,0.1,3.3-0.1c1-0.2,1.9-1,2.2-2
	c0.4-1,0.4-2.1,0.4-3.2c1.7,0,3.5,0,5.2,0c-0.1,1.7,0,3.5-0.9,5c-0.8,1.3-2.2,2.1-3.6,2.5c1.7,0.5,3.2,1.5,4,3
	c0.8,1.7,0.6,3.7,0.6,5.5h-5.3c-0.1-1.5,0.3-3.2-0.5-4.6c-0.6-1.2-1.9-1.7-3.2-1.8c-0.8,0-1.6,0-2.4,0c0,2.1,0,4.2,0,6.4
	c-1.8,0-3.5,0-5.3,0C667.1,30.6,667.1,23.8,667.1,17z M653,21.4c2.6-0.5,5.4-0.2,7.7,1c1.8,1,3.2,2.6,3.8,4.6c0.7,2.4,0.4,5.2-1,7.3
	c-1.2,1.8-3.2,3-5.3,3.5c-2.5,0.6-5.1,0.3-7.4-0.7c-2.2-1-4-3-4.6-5.4c-0.6-2.4-0.1-5.2,1.5-7.2C648.9,22.8,650.9,21.8,653,21.4
	 M654.2,25.5c-1.9,0.5-3.3,2.4-3.2,4.4c0.1,1.4,0.9,2.7,2.1,3.5s2.8,0.8,4,0.2c1.9-0.9,3-3.4,2.1-5.4
	C658.6,26.1,656.3,24.9,654.2,25.5z M585.1,25.2c1.4-2.2,3.9-3.7,6.5-3.7c3.4,0,6.8,0,10.2,0c0,1.6,0.1,3.1-0.1,4.7
	c-1.1,1.8-2.2,3.5-3.4,5.3c-1.7,0-3.4,0-5,0c1.1-1.9,2.2-3.7,3.3-5.6c-1.4,0-2.7,0-4.1,0c-1.2-0.1-2.4,0.7-3,1.7
	c-0.8,1.2-0.7,2.9,0.1,4c0.7,1,1.9,1.6,3.1,1.5c3,0,6,0,9.1,0c0,1.5,0,2.9,0,4.4c-2.9,0-5.8,0-8.7,0c-1.2,0-2.4,0-3.6-0.3
	c-2.3-0.7-4.2-2.4-5-4.6C583.5,30.2,583.7,27.4,585.1,25.2z M607.5,23c1.3-1,3-1.5,4.6-1.5c3.3,0,6.7,0,10,0c0,1.6,0,3.1,0,4.7
	c-1.1,1.7-2.3,3.5-3.4,5.3c-1.7,0-3.4,0-5,0c1.1-1.9,2.2-3.7,3.3-5.6c-1.5,0-3,0-4.5,0c-2,0.1-3.5,2.2-3.2,4.1
	c0.2,1.7,1.7,3.1,3.5,3.2c3.1,0,6.2,0,9.3,0c0,1.5,0,2.9,0,4.4c-3.4,0-6.7,0-10.1,0c-2.1,0-4.1-0.8-5.6-2.4
	c-1.7-1.7-2.6-4.1-2.4-6.5C604.5,26.4,605.7,24.4,607.5,23z M649.2,48.4c11.5-1.2,23-2.1,34.5-2.9c-6.2,1.6-12.5,3.1-18.7,4.9
	c-8.6,2.5-17.1,5.6-25.4,9c-4.4-2.6-8.8-5.1-13.1-7.7C634,50.3,641.6,49.3,649.2,48.4L649.2,48.4z M566.2,46.2c14.4,0,28.8,0,43.1,0
	c3.1,1.6,6.2,3.4,9.2,5.1c11.9,6.8,23.6,13.8,35.4,20.7c2.8,1.7,5.7,3.4,8.4,5.1c0.6,0.4,1.2,0.8,1.8,1.2
	c-12.7-5.3-25.2-10.9-38.1-15.8c-10.9-4.1-22.1-7.7-33.5-10.6c-6.3-1.6-12.7-3-19-4.3C571.1,47.2,568.7,46.8,566.2,46.2L566.2,46.2z
	 M581.9,67.2c5.9-3.9,12.6-6.8,19.3-9.2c4,1.1,8,2.4,11.9,3.7c-5.3,2.1-10.3,4.7-14.8,8.1c-2.9,2.2-5.7,4.6-7.9,7.5
	c-6.5,0-13,0-19.5,0C574,73.4,577.8,70,581.9,67.2L581.9,67.2z M601.9,72.9c4.5-4.1,9.7-7.3,15.3-9.7c3.1,1.1,6.2,2.3,9.3,3.5
	c-2.7,1.9-5.3,3.9-7.5,6.3c-1.3,1.4-2.4,2.9-3.5,4.4c-5.9,0-11.8,0-17.6,0C599,75.7,600.3,74.3,601.9,72.9L601.9,72.9z"/>
<g>
	<path d="M705.7,64.3h-1.9l-0.4-4.2h2L705.7,64.3z M822.9,64.3h2l0.3-4.2h-2L822.9,64.3z M702.2,60.2h-1.9l0.3,4.2h2L702.2,60.2z
		 M826.1,64.3h2l0.3-4.2h-2L826.1,64.3z M715.5,65.3c0.1,1.4-1,2.7-2.5,2.7c-0.1,0-0.1,0-0.1,0c-1.4,0-2.7-1.2-2.7-2.7v-0.1l0,0
		c0-1.4,1-2.7,2.6-2.7C714.3,62.6,715.5,63.8,715.5,65.3L715.5,65.3L715.5,65.3 M707.2,65.3c0,3,2.4,5.3,5.6,5.3
		c3.2,0,5.6-2.4,5.6-5.3l0,0c0-3-2.4-5.3-5.6-5.3C709.7,60,707.2,62.4,707.2,65.3L707.2,65.3 M720.2,70.4h2.9v-3.6h4.9v-2.3h-4.9
		v-1.7h5.4v-2.5h-8.3V70.4L720.2,70.4z M730.1,70.4h2.9v-3.6h4.9v-2.3H733v-1.7h5.4v-2.5h-8.3V70.4L730.1,70.4z M746.5,70.4h2.9
		v-7.7h3.1v-2.5h-9.1v2.5h3.1V70.4L746.5,70.4z M754.4,70.4h2.9v-3.9h3.7v3.9h2.9V60.2H761V64h-3.7v-3.8h-2.9V70.4L754.4,70.4z
		 M765.7,70.4h8.4V68h-5.6v-1.6h5v-2.2h-5v-1.6h5.5v-2.4h-8.3V70.4L765.7,70.4z M782,70.5h2.5l2.1-5.8l2.1,5.8h2.5l3.5-10.2h-3
		l-1.8,5.9l-2-6h-2.5l-2,5.9l-1.8-5.9h-3L782,70.5z M798,66.4l1.2-2.9l1.2,2.9H798L798,66.4z M793.4,70.4h3l0.8-1.8h4l0.8,1.8h3.1
		l-4.4-10.2h-2.8L793.4,70.4z M806.3,70.4h7.9v-2.5h-5v-7.7h-2.9V70.4L806.3,70.4z M815.8,70.4h7.9v-2.5h-5v-7.7h-2.9L815.8,70.4
		L815.8,70.4z"/>
	<path d="M811.3,34.6h-5.6c-0.5-1.4-1.2-2.4-4.3-2.4c-2.1,0-3.1,0.9-3.1,1.8c0,1,0.8,1.8,3.1,2.3l5,1.3c3.3,0.9,4.9,3.5,4.9,6.2
		c0,1.6-0.3,3.4-1.8,4.9c-1.1,1.2-2.7,2.7-8.2,2.7c-7.5,0-10-4.7-10-7.6h5.8c0.6,2.1,2,2.9,4.9,2.9c2,0,3.7-0.7,3.7-2.2
		c0-1.4-1.2-2-2.8-2.4l-4-1.1c-1.9-0.6-3.5-1-4.7-2c-3-2.5-2.8-7.1,0.5-9.4c1.8-1.3,3.6-2,6.5-2c3.4,0,5.4,1,6.9,2
		C809.7,30.5,811.3,32.8,811.3,34.6 M717.3,18.5c0.1,0.2,11.6,32.7,11.6,32.7h6.9l10.6-27h66.2l0.5-5.7h-71.9l-8.9,22.4l-7.9-22.4
		H717.3 M774.6,39.5l8.6,11.7h5.4V28h-6.2v12.6L774.6,28h-6v23.1h6L774.6,39.5L774.6,39.5z M813.5,50c0-0.7-0.6-1.2-1.2-1.2
		s-1.2,0.6-1.2,1.2c0,0.7,0.6,1.2,1.2,1.2S813.5,50.7,813.5,50L813.5,50L813.5,50z M813.4,50c0,0.6-0.5,1.1-1.1,1.1
		c-0.6,0-1.1-0.5-1.1-1.1c0-0.6,0.5-1.1,1.1-1.1C812.9,48.9,813.4,49.3,813.4,50L813.4,50L813.4,50z M812.9,49.7
		c0-0.2-0.2-0.5-0.5-0.5h-0.1h-0.6v1.3h0.3v-0.4h0.2l0.3,0.4h0.3l-0.3-0.5C812.8,50.1,812.9,49.9,812.9,49.7L812.9,49.7z
		 M812.6,49.7c0,0.1-0.1,0.2-0.2,0.2c0,0,0,0-0.1,0h-0.3v-0.4h0.3C812.5,49.5,812.5,49.6,812.6,49.7
		C812.6,49.7,812.6,49.7,812.6,49.7L812.6,49.7z M741.6,51.2h6.7l1.2-3.6h8.8l1.3,3.6h6.5L757.7,28h-7L741.6,51.2z M751.3,43.4
		l2.5-7.7l2.6,7.7H751.3L751.3,43.4z"/>
</g>
</svg>
