<?xml version="1.0" encoding="utf-8"?>
<!-- Generator: Adobe Illustrator 24.0.2, SVG Export Plug-In . SVG Version: 6.00 Build 0)  -->
<svg version="1.1" id="Capa_1" xmlns="http://www.w3.org/2000/svg" xmlns:xlink="http://www.w3.org/1999/xlink" x="0px" y="0px"
	 viewBox="0 0 131.7 90.9" style="enable-background:new 0 0 131.7 90.9;" xml:space="preserve">
<style type="text/css">
	.st0{stroke:#000000;stroke-width:5.3256;stroke-miterlimit:33.3341;}
	.st1{fill-rule:evenodd;clip-rule:evenodd;}
</style>
<g>
	<path d="M118.3,86.5c-5.8,0-9.2-3-9.5-7.2h5.6c0,1.4,0.8,3.3,4.2,3.5c2.4,0,3.7-1.4,3.7-2.4c-0.3-1.7-2.4-1.8-4.5-2.2
		c-2.4-0.4-4.2-0.8-5.6-1.4c-1.9-0.9-2.9-3-2.9-5.1c0-3.8,3.2-6.8,8.8-6.8c5.3,0,8.8,2.7,8.9,6.9h-5.3c0-1-0.3-2.8-3.4-2.8
		c-2.1,0-3.4,0.4-3.7,1.9c0,2.2,4.5,2,7.9,2.8c3.2,0.8,5.3,2.8,5.3,5.7C127.8,84.5,123.6,86.5,118.3,86.5 M17.3,51.5l18.2-10.5
		l9.8,16.7H20.7"/>
	<path class="st0" d="M55.5,85.8V64.8"/>
	<path d="M8.8,75.6c0,3.3,2.9,6,6,6c3.5,0,6-2.7,6-6c0-3.2-2.6-6-6-6C11.8,69.6,8.8,72.4,8.8,75.6 M14.7,86.5
		c-5.8,0-10.8-4.8-10.8-10.9c0-6,5-10.8,10.8-10.8c2.4,0,4.5,0.6,6.3,1.9v-1.7h5.3v21H21v-1.3C19.4,85.9,17,86.5,14.7,86.5
		 M85.1,57.6L59.8,13.4L77.9,2.8l31.7,54.8 M33.1,75.6c0,3.3,2.6,6,6,6c3.2,0,6-2.7,6-6c0-3.2-2.9-6-6-6
		C35.8,69.6,33.1,72.4,33.1,75.6 M39,86.5c-6,0-10.8-4.9-10.8-10.9S32.9,64.8,39,64.8c2.4,0,4.5,0.6,6.3,1.9v-8.9h5.3v28.2h-5.3
		v-1.3C43.4,85.9,41.3,86.5,39,86.5 M38.7,32.6l18.5-10.5l20.3,35.5H58.2v5.3h-5.3v-5.3 M124.4,63c-1.3,0-2.6-1.2-2.6-2.6
		c0-1.4,1.3-2.6,2.6-2.6c1.6,0,2.6,1.2,2.6,2.6C127,61.8,126,63,124.4,63 M124.4,58.2c-1.3,0-2.1,1-2.1,2.3c0,1.2,0.8,2.3,2.1,2.3
		c1.3,0,2.1-1,2.1-2.3C126.5,59.2,125.7,58.2,124.4,58.2"/>
	<path d="M124.9,61.8l-0.6-1.2h-0.6v1.2h-0.4V59h1.2c0.3,0,0.8,0.4,0.8,0.8s-0.3,0.8-0.6,0.8l0.6,1.2 M124.5,59.4h-0.6v0.9h0.6
		c0.6,0,0.6-0.1,0.6-0.5C124.9,59.6,124.9,59.4,124.5,59.4 M89.5,75.6c0,3.3,2.6,6,6,6c3.2,0,6-2.7,6-6c0-3.2-2.9-6-6-6
		C92.2,69.6,89.5,72.4,89.5,75.6 M95.4,86.5c-6,0-10.8-4.9-10.8-10.9s4.7-10.8,10.8-10.8c2.4,0,4.5,0.6,6.3,1.9v-1.7h5v21h-5v-1.3
		C99.9,85.9,97.7,86.5,95.4,86.5 M65.3,75.6c0,3.3,2.9,6,6,6c3.4,0,6-2.7,6-6c0-3.2-2.6-6-6-6C68.3,69.6,65.3,72.4,65.3,75.6
		 M77.5,57.8h5.3V86h-5.3v-1.3c-1.6,1.2-3.7,1.8-6,1.8c-6,0-11.1-4.9-11.1-10.9s5-10.8,11.1-10.8c2.4,0,4.5,0.6,6,1.9V57.8z"/>
</g>
</svg>
