<?xml version="1.0" encoding="utf-8"?>
<!-- Generator: Adobe Illustrator 24.0.2, SVG Export Plug-In . SVG Version: 6.00 Build 0)  -->
<svg version="1.1" id="Capa_1" xmlns="http://www.w3.org/2000/svg" xmlns:xlink="http://www.w3.org/1999/xlink" x="0px" y="0px"
	 viewBox="0 0 138.8 99.7" style="enable-background:new 0 0 138.8 99.7;" xml:space="preserve">
<style type="text/css">
	.st0{fill-rule:evenodd;clip-rule:evenodd;}
	.st1{stroke:#000000;stroke-width:5.6565;stroke-miterlimit:33.3341;}
</style>
<g>
	<path d="M-577.7,103.3l-0.1-21.4l20.5-7.6l-20.6-6.8l-0.4-21.1l-12.5,17l-20.5-6.3l11.9,17.9L-611.1,93l20.2-6.7L-577.7,103.3z"/>
	<path d="M-575.2,125.8h36.7l46-50.9l-46.2-50.9H-575l43.2,50.8L-575.2,125.8z"/>
	<path d="M-656.9,153.2c0-6.6,5.6-13.1,13.2-13.1c5.2,0,11,5.9,11,5.9l-6.3,3.7c0,0-1-2.8-4.9-2.8c-4,0-6.3,3.3-6.3,6.2
		c0,3.3,2.7,6.2,6.1,6.2c2.7,0,5.5-2.9,5.5-2.9l5.4,3.9c0,0-4,4.9-10.8,4.9C-650.8,165.3-656.9,161.2-656.9,153.2z"/>
	<path class="st0" d="M-617.5,140.4c-7.1,0-12.9,5.7-12.9,12.7c0,7,5.8,12.6,12.9,12.6s12.9-5.7,12.9-12.6
		C-604.6,146.1-610.3,140.4-617.5,140.4L-617.5,140.4z M-617.5,146.8c3.6,0,6.4,2.8,6.4,6.3c0,3.5-2.9,6.3-6.4,6.3
		c-3.6,0-6.4-2.8-6.4-6.3C-623.9,149.6-621,146.8-617.5,146.8z M-599.7,140.8v23.7h6.2v-12.8l10.2,12.8h6.1v-23.7h-6.2v13.8
		l-10.1-13.8H-599.7z M-572.1,140.8l8.4,23.7h9.2l8.4-23.7h-6.8l-6.2,18.8l-6.2-18.8H-572.1z M-541.7,140.8v23.7h19V159h-12.8v-4
		h11.5v-4.8h-11.5v-3.8h12.8v-5.6L-541.7,140.8z M-465,140.8v23.7h19V159h-12.8v-4h11.5v-4.8h-11.5v-3.8h12.8v-5.6L-465,140.8z
		 M-515.7,141.2v23.3h5.5v-9.2h3.2l4.8,9.2h7.1l-4.8-10c6.2-3.7,5-11.5-1.9-13.4H-515.7z M-510.3,146.9h6.4c2.2,0,2.1,3.4,0,3.4
		h-6.4V146.9z"/>
	<path d="M-491.8,161.3c0.2,1.5,6,4.2,11.7,4.2c5.2,0,9.4-2.5,9.4-7.5c0-6.1-7.2-7.5-7.2-7.5s-5.9-0.1-6.1-2.8c-0.1-1.3,1.7-2,3.3-2
		c2.6,0,5.5,2.6,5.5,2.6l4.1-4.5c0,0-5.2-4.1-9.7-4.1c-4.2,0-10.2,2.8-10.2,8.5c0,4.9,7,7.2,7,7.2s7.3,0.8,7.3,3.1
		c0,1.6-2.7,2-4.2,2c-3.8,0-7-3.3-7-3.3L-491.8,161.3z"/>
</g>
<g>
	<path d="M-746.5,141.7c-6.2,0-9.8-3.2-10.1-7.7h5.9c0,1.5,0.8,3.5,4.5,3.7c2.5,0,3.9-1.5,3.9-2.6c-0.3-1.8-2.5-1.9-4.8-2.3
		c-2.5-0.4-4.5-0.9-5.9-1.5c-2-1-3.1-3.2-3.1-5.4c0-4,3.4-7.2,9.3-7.2c5.6,0,9.3,2.9,9.5,7.3h-5.6c0-1.1-0.3-3-3.6-3
		c-2.2,0-3.6,0.4-3.9,2c0,2.3,4.8,2.1,8.4,3c3.4,0.9,5.6,3,5.6,6.1C-736.4,139.5-740.9,141.7-746.5,141.7 M-853.8,104.4l19.3-11.2
		l10.4,17.8h-26.1"/>
	<path class="st1" d="M-813.1,141v-22.5"/>
	<path d="M-862.8,130.1c0,3.5,3.1,6.4,6.4,6.4c3.7,0,6.4-2.9,6.4-6.4c0-3.4-2.8-6.4-6.4-6.4C-859.7,123.7-862.8,126.7-862.8,130.1
		 M-856.6,141.7c-6.2,0-11.5-5.2-11.5-11.6c0-6.4,5.3-11.5,11.5-11.5c2.5,0,4.8,0.6,6.7,2v-1.8h5.6v22.3h-5.6v-1.4
		C-851.6,141.1-854.1,141.7-856.6,141.7 M-781.8,111l-26.9-46.9l19.3-11.4l33.6,58.3 M-837,130.1c0,3.5,2.8,6.4,6.4,6.4
		c3.4,0,6.4-2.9,6.4-6.4c0-3.4-3.1-6.4-6.4-6.4C-834.2,123.7-837,126.7-837,130.1 M-830.8,141.7c-6.4,0-11.5-5.2-11.5-11.6
		s5-11.5,11.5-11.5c2.5,0,4.8,0.6,6.7,2v-9.5h5.6v30h-5.6v-1.4C-826.1,141.1-828.3,141.7-830.8,141.7 M-831.1,84.4l19.6-11.1
		l21.6,37.7h-20.5v5.6h-5.6V111 M-740,116.7c-1.4,0-2.8-1.3-2.8-2.8s1.4-2.8,2.8-2.8c1.7,0,2.8,1.3,2.8,2.8S-738.4,116.7-740,116.7
		 M-740,111.5c-1.4,0-2.2,1.1-2.2,2.4s0.8,2.4,2.2,2.4c1.4,0,2.2-1.1,2.2-2.4S-738.6,111.5-740,111.5"/>
	<path d="M-739.5,115.5l-0.6-1.3h-0.6v1.3h-0.4v-3h1.3c0.3,0,0.8,0.4,0.8,0.9s-0.3,0.8-0.6,0.9l0.6,1.3 M-740,112.8h-0.6v1h0.6
		c0.6,0,0.6-0.1,0.6-0.5C-739.5,113.1-739.5,112.8-740,112.8 M-777,130.1c0,3.5,2.8,6.4,6.4,6.4c3.4,0,6.4-2.9,6.4-6.4
		c0-3.4-3.1-6.4-6.4-6.4C-774.2,123.7-777,126.7-777,130.1 M-770.9,141.7c-6.4,0-11.5-5.2-11.5-11.6s5-11.5,11.5-11.5
		c2.5,0,4.8,0.6,6.7,2v-1.8h5.3v22.3h-5.3v-1.4C-766.1,141.1-768.4,141.7-770.9,141.7 M-802.8,130.1c0,3.5,3.1,6.4,6.4,6.4
		c3.6,0,6.4-2.9,6.4-6.4c0-3.4-2.8-6.4-6.4-6.4C-799.7,123.7-802.8,126.7-802.8,130.1 M-789.9,111.2h5.6v30h-5.6v-1.4
		c-1.7,1.3-3.9,1.9-6.4,1.9c-6.4,0-11.8-5.2-11.8-11.6c0-6.4,5.3-11.5,11.8-11.5c2.5,0,4.8,0.6,6.4,2V111.2z"/>
</g>
<g>
	<path d="M52.9,58.1l-0.1-13.7l13.1-4.9l-13.2-4.3l-0.3-13.5l-8,10.9l-13.1-4L38.9,40l-7.4,11.5l12.9-4.3L52.9,58.1z"/>
	<path d="M54.5,72.5H78L107.4,40L77.9,7.4H54.6l27.7,32.6L54.5,72.5z"/>
	<path d="M2.2,90.1c0-4.2,3.6-8.4,8.5-8.4c3.3,0,7.1,3.8,7.1,3.8l-4,2.4c0,0-0.7-1.8-3.2-1.8c-2.5,0-4,2.1-4.1,4c0,2.1,1.7,4,3.9,4
		c1.7,0,3.5-1.8,3.5-1.8l3.5,2.5c0,0-2.6,3.2-6.9,3.2C6.1,97.8,2.2,95.2,2.2,90.1z"/>
	<path class="st0" d="M27.4,81.9c-4.6,0-8.2,3.6-8.2,8.1c0,4.5,3.7,8.1,8.2,8.1s8.3-3.6,8.3-8.1C35.7,85.5,32,81.9,27.4,81.9
		L27.4,81.9z M27.4,85.9c2.3,0,4.1,1.8,4.1,4.1c0,2.2-1.9,4-4.1,4c-2.3,0-4.1-1.8-4.1-4C23.3,87.8,25.2,85.9,27.4,85.9z M38.8,82.1
		v15.2h4v-8.2l6.5,8.2h3.9V82.1h-4V91l-6.5-8.9H38.8z M56.5,82.1l5.4,15.2h5.9l5.4-15.2h-4.3l-4,12l-4-12H56.5z M75.9,82.1v15.2
		h12.2v-3.5h-8.2v-2.5h7.4v-3.1h-7.4v-2.4h8.2v-3.6L75.9,82.1z M125.1,82.1v15.2h12.2v-3.5h-8.2v-2.5h7.4v-3.1h-7.4v-2.4h8.2v-3.6
		L125.1,82.1z M92.6,82.4v14.9h3.5v-5.9h2l3.1,5.9h4.5l-3.1-6.4c4-2.4,3.2-7.4-1.2-8.6H92.6z M96.1,86h4.1c1.4,0,1.3,2.2,0,2.2h-4.1
		V86z"/>
	<path d="M107.9,95.2c0.2,0.9,3.9,2.7,7.5,2.7c3.3,0,6-1.6,6-4.8c0-3.9-4.6-4.8-4.6-4.8s-3.8-0.1-3.9-1.8c0-0.8,1.1-1.3,2.1-1.3
		c1.7,0,3.5,1.7,3.5,1.7l2.7-2.9c0,0-3.4-2.7-6.2-2.7c-2.7,0-6.6,1.8-6.6,5.5c0,3.1,4.5,4.6,4.5,4.6s4.7,0.5,4.7,2
		c0,1-1.7,1.3-2.7,1.3c-2.4,0-4.5-2.1-4.5-2.1L107.9,95.2z"/>
</g>
</svg>
