<?xml version="1.0" encoding="utf-8"?>
<!-- Generator: Adobe Illustrator 24.0.2, SVG Export Plug-In . SVG Version: 6.00 Build 0)  -->
<svg version="1.1" id="Capa_1" xmlns="http://www.w3.org/2000/svg" xmlns:xlink="http://www.w3.org/1999/xlink" x="0px" y="0px"
	 viewBox="0 0 131.7 90.9" style="enable-background:new 0 0 131.7 90.9;" xml:space="preserve">
<style type="text/css">
	.st0{stroke:#000000;stroke-width:5.3256;stroke-miterlimit:33.3341;}
	.st1{fill-rule:evenodd;clip-rule:evenodd;}
</style>
<g>
	<path d="M51.2,49.7l-0.1-12.4L63,32.9L51.1,29l-0.3-12.2l-7.2,9.9L31.7,23l6.9,10.3l-6.7,10.4l11.7-3.9L51.2,49.7z"/>
	<path d="M52.7,62.7h21.2l26.6-29.4L73.9,3.8H52.8l25,29.5L52.7,62.7z"/>
	<path d="M5.4,78.6c0-3.8,3.3-7.6,7.7-7.6c3,0,6.4,3.4,6.4,3.4l-3.6,2.2c0,0-0.6-1.6-2.9-1.6s-3.6,1.9-3.7,3.6
		c0,1.9,1.5,3.6,3.5,3.6c1.5,0,3.2-1.6,3.2-1.6l3.2,2.3c0,0-2.4,2.9-6.2,2.9C8.9,85.6,5.4,83.2,5.4,78.6z"/>
	<path class="st1" d="M28.2,71.2c-4.2,0-7.4,3.3-7.4,7.3c0,4.1,3.3,7.3,7.4,7.3s7.5-3.3,7.5-7.3C35.7,74.4,32.3,71.2,28.2,71.2
		L28.2,71.2z M28.2,74.8c2.1,0,3.7,1.6,3.7,3.7c0,2-1.7,3.6-3.7,3.6c-2.1,0-3.7-1.6-3.7-3.6C24.5,76.5,26.2,74.8,28.2,74.8z
		 M38.5,71.4v13.7h3.6v-7.4l5.9,7.4h3.5V71.4h-3.6v8l-5.9-8H38.5z M54.5,71.4l4.9,13.7h5.3l4.9-13.7h-3.9l-3.6,10.9l-3.6-10.9H54.5z
		 M72,71.4v13.7h11V82h-7.4v-2.3h6.7v-2.8h-6.7v-2.2h7.4v-3.3L72,71.4z M116.5,71.4v13.7h11V82h-7.4v-2.3h6.7v-2.8h-6.7v-2.2h7.4
		v-3.3L116.5,71.4z M87.1,71.6v13.5h3.2v-5.3h1.8l2.8,5.3H99l-2.8-5.8c3.6-2.2,2.9-6.7-1.1-7.8L87.1,71.6L87.1,71.6z M90.3,74.9H94
		c1.3,0,1.2,2,0,2h-3.7V74.9z"/>
	<path d="M101,83.2c0.2,0.8,3.5,2.4,6.8,2.4c3,0,5.4-1.4,5.4-4.3c0-3.5-4.2-4.3-4.2-4.3s-3.4-0.1-3.5-1.6c0-0.7,1-1.2,1.9-1.2
		c1.5,0,3.2,1.5,3.2,1.5l2.4-2.6c0,0-3.1-2.4-5.6-2.4c-2.4,0-6,1.6-6,5c0,2.8,4.1,4.2,4.1,4.2s4.2,0.5,4.2,1.8
		c0,0.9-1.5,1.2-2.4,1.2c-2.2,0-4.1-1.9-4.1-1.9L101,83.2z"/>
</g>
</svg>
