<?xml version="1.0" encoding="utf-8"?>
<!-- Generator: Adobe Illustrator 24.0.2, SVG Export Plug-In . SVG Version: 6.00 Build 0)  -->
<svg version="1.1" id="Capa_1" xmlns="http://www.w3.org/2000/svg" xmlns:xlink="http://www.w3.org/1999/xlink" x="0px" y="0px"
	 viewBox="0 0 176.1 92.5" style="enable-background:new 0 0 176.1 92.5;" xml:space="preserve">
<g>
	<path d="M42.4,0.3c-0.2,0.2-0.4,0.6-0.5,0.9c-0.1,0.4-0.4,1-0.5,1.4c-0.7,1.9-0.9,2.4-1.2,3.1C40,6.3,39.8,7,39.6,7.3
		c-0.1,0.4-0.4,1.1-0.6,1.6c-0.2,0.5-0.5,1.2-0.6,1.6c-0.2,0.4-0.4,1.1-0.6,1.5c-0.2,0.4-0.4,1.1-0.6,1.6c-0.4,1.1-0.8,2.2-1.2,3.1
		c-0.2,0.4-0.4,1.1-0.6,1.6c-0.2,0.5-0.5,1.2-0.6,1.6c-0.2,0.4-0.4,1.1-0.6,1.5c-0.2,0.4-0.4,1.1-0.6,1.6c-0.2,0.5-0.4,1.2-0.6,1.6
		c-0.2,0.4-0.4,1.1-0.6,1.6c-0.2,0.5-0.5,1.2-0.6,1.6c-0.1,0.4-0.4,1.1-0.6,1.6c-0.2,0.5-0.5,1.2-0.6,1.6c-0.4,0.9-0.8,2.1-1.2,3.1
		c-0.2,0.5-0.4,1.2-0.6,1.5c-0.1,0.4-0.4,1-0.6,1.5c-0.2,0.4-0.5,1.2-0.6,1.7c-0.4,1.1-0.9,2.3-1.2,3.1c-0.1,0.4-0.4,1.1-0.6,1.5
		c-0.2,0.5-0.5,1.2-0.6,1.7c-0.2,0.5-0.4,1-0.5,1.2c-0.1,0.2-0.2,0.5-0.2,0.7c0,0.4,0.1,0.4,5.5,0.4h5.5l0.2-0.6
		c0.1-0.3,0.6-1.5,1-2.6c0.4-1.1,1-2.5,1.2-3c0.2-0.6,0.5-1.3,0.6-1.6c0.2-0.7,0.4-1.3,1.8-4.7c0.6-1.4,1.1-2.8,1.2-3.1
		c0.3-0.9,0.8-2.3,1-2.6c0.1-0.1,0.2-0.5,0.3-0.8c0.1-0.4,0.2-0.5,0.4-0.4c0.2,0.2,0.1,1.7-0.7,13.3c-0.2,2.3-0.3,4.5-0.2,5l0.1,0.9
		l5.6,0.1c3.1,0,5.8,0,6-0.1c0.2-0.1,0.5-0.3,0.6-0.6c0.2-0.5,1.2-3.4,1.6-4.2c0.1-0.3,0.3-0.8,0.4-1c0.1-0.2,0.3-0.8,0.5-1.4
		c0.2-0.6,0.8-2.2,1.4-3.7c0.6-1.5,1.2-3,1.3-3.3c0.2-0.3,0.3-0.7,0.3-0.8c0-0.2,0.1-0.6,0.3-1c0.5-1.1,1.2-3,1.7-4.4
		c0.1-0.4,0.4-1.1,0.6-1.6c0.2-0.5,0.5-1.2,0.6-1.6c0.1-0.4,0.4-1.1,0.6-1.5c0.2-0.5,0.5-1.2,0.6-1.6c0.2-0.4,0.4-1.1,0.6-1.6
		c0.2-0.4,0.4-1.1,0.6-1.6c0.2-0.4,0.4-1.1,0.6-1.6c0.2-0.4,0.4-1.1,0.6-1.6c0.2-0.4,0.4-1.1,0.6-1.6c0.2-0.4,0.4-1.2,0.6-1.6
		c0.2-0.5,0.4-1.1,0.6-1.5c0.3-0.7,0.7-1.8,1.2-3.1c0.2-0.5,0.5-1.2,0.6-1.6c0.6-1.6,0.9-2.5,1.2-3.2c0.2-0.4,0.3-0.9,0.2-1.2
		l-0.1-0.5l-4.8-0.1c-2.7,0-5.1,0-5.4,0.1c-0.6,0.1-0.6,0-2.3,4.6c-0.2,0.4-0.4,1.1-0.6,1.6c-0.2,0.4-0.4,1.1-0.6,1.5
		c-0.2,0.4-0.4,1.1-0.6,1.6c-0.2,0.5-0.5,1.2-0.6,1.7c-0.6,1.6-0.8,2.2-1.5,3.9c-1.1,3-1.2,3.2-1.5,3.8c-0.1,0.3-0.3,0.8-0.4,1
		c-0.1,0.2-0.2,0.3-0.3,0.2c-0.1-0.1-0.1-1.2,0.1-3c0.2-1.6,0.3-3.6,0.3-4.4c0-0.9,0.1-2.9,0.3-4.6c0.3-3.7,0.5-7.3,0.3-7.6
		C53.8-0.1,42.8,0,42.4,0.3L42.4,0.3z M73.4,0.4C73.3,0.6,73,1,72.9,1.4c-0.1,0.3-0.4,1.1-0.6,1.6c-0.2,0.6-0.5,1.3-0.6,1.6
		c-0.1,0.3-0.4,1-0.6,1.6c-0.2,0.6-0.5,1.3-0.6,1.6c-0.1,0.3-0.4,1-0.6,1.6c-0.2,0.6-0.5,1.3-0.6,1.6c-0.1,0.3-0.4,1-0.6,1.6
		c-0.2,0.6-0.5,1.3-0.6,1.6s-0.4,1-0.6,1.6c-0.2,0.6-0.5,1.3-0.6,1.6c-0.1,0.3-0.4,1-0.6,1.6c-0.2,0.6-0.5,1.3-0.6,1.6
		c-0.1,0.3-0.4,1-0.6,1.6c-0.2,0.6-0.5,1.3-0.6,1.6c-0.1,0.3-0.4,1-0.6,1.6c-0.2,0.6-0.5,1.3-0.6,1.6c-0.1,0.3-0.4,1-0.6,1.6
		c-0.6,1.5-1,2.6-1.2,3.1c-0.1,0.3-0.4,1-0.6,1.6c-0.2,0.6-0.5,1.3-0.6,1.6c-0.1,0.3-0.4,1-0.6,1.6c-0.2,0.6-0.5,1.3-0.6,1.6
		c-0.1,0.3-0.4,1-0.6,1.6c-0.2,0.6-0.5,1.3-0.6,1.6c-0.1,0.3-0.4,1-0.6,1.6c-0.2,0.6-0.5,1.3-0.6,1.6c-0.1,0.3-0.4,1-0.6,1.6
		c-0.8,2-1.3,1.9,5,1.9l5.4,0l0.3-0.6c0.2-0.3,0.4-0.8,0.5-1.1c0.1-0.3,0.4-1,0.6-1.6c0.2-0.6,0.5-1.3,0.6-1.6
		c0.1-0.3,0.4-1,0.6-1.6c0.2-0.6,0.5-1.3,0.6-1.6c0.1-0.3,0.4-1,0.6-1.6c0.2-0.6,0.5-1.3,0.6-1.6c0.1-0.3,0.4-1,0.6-1.6
		c0.2-0.6,0.5-1.3,0.6-1.6s0.4-1,0.6-1.6c0.2-0.6,0.5-1.3,0.6-1.6c0.1-0.3,0.4-1,0.6-1.6c0.2-0.6,0.5-1.3,0.6-1.6
		c0.1-0.3,0.4-1,0.6-1.6c0.2-0.6,0.5-1.3,0.6-1.6c0.1-0.3,0.4-1,0.6-1.6c0.2-0.6,0.5-1.3,0.6-1.6c0.1-0.3,0.4-1,0.6-1.6
		c0.2-0.6,0.5-1.3,0.6-1.6c0.1-0.3,0.4-1,0.6-1.6c0.2-0.6,0.5-1.3,0.6-1.6c0.1-0.3,0.4-1,0.6-1.6c0.2-0.6,0.5-1.3,0.6-1.6
		c0.1-0.3,0.4-1,0.6-1.6c0.2-0.6,0.5-1.3,0.6-1.6c0.1-0.3,0.4-1,0.6-1.6C82.6,5.8,82.9,5,83,4.8c0.1-0.3,0.4-1,0.6-1.6
		c1-2.5,1-2.8,0.7-3c-0.1-0.1-2.6-0.2-5.4-0.2C74.1,0.1,73.8,0.1,73.4,0.4L73.4,0.4z"/>
	<path d="M86.4,0.6c-0.2,0.3-0.4,0.7-0.5,1c-0.1,0.3-0.4,1-0.6,1.6s-0.5,1.3-0.6,1.6c-0.1,0.3-0.4,1-0.6,1.6
		c-0.2,0.6-0.5,1.3-0.6,1.7c-0.1,0.3-0.3,0.8-0.4,1c-0.1,0.2-0.6,1.5-1.1,2.9c-0.5,1.4-1,2.7-1.1,2.9c-0.1,0.2-0.3,0.6-0.4,1
		c-0.1,0.3-0.4,1.1-0.6,1.7c-0.2,0.6-0.5,1.3-0.6,1.6c-0.1,0.3-0.4,1-0.6,1.6c-0.2,0.6-0.5,1.3-0.6,1.6c-0.1,0.3-0.4,1-0.6,1.6
		c-0.2,0.6-0.5,1.3-0.6,1.6c-0.1,0.3-0.4,1-0.6,1.6c-0.2,0.6-0.5,1.3-0.6,1.6c-0.1,0.3-0.4,1-0.6,1.6c-0.6,1.5-1,2.6-1.2,3.1
		c-0.1,0.3-0.4,1-0.6,1.6c-0.2,0.6-0.5,1.3-0.6,1.6c-0.1,0.3-0.4,1-0.6,1.6c-0.2,0.6-0.6,1.6-0.8,2.3c-0.2,0.6-0.5,1.4-0.6,1.6
		c-0.1,0.2-0.4,1-0.7,1.8c-0.3,0.7-0.6,1.6-0.7,1.8c-1,2.3-1.4,2.1,4.9,2.1c5.5,0,5.5,0,5.8-0.4c0.2-0.2,0.3-0.6,0.3-0.8
		c0-0.2,0.1-0.6,0.3-0.9c0.2-0.3,0.4-0.9,0.6-1.4c0.2-0.5,0.5-1.2,0.6-1.6c0.2-0.4,0.4-1.1,0.6-1.5c0.2-0.4,0.4-1.1,0.6-1.6
		c0.2-0.5,0.4-1.2,0.6-1.6c0.2-0.4,0.7-1.8,1.2-3.1c0.5-1.3,1-2.7,1.2-3c1-2.5,1.2-2.9,1.3-2.7c0.1,0.1,0.2,3.5,0.3,7.4
		s0.2,8.1,0.3,9.1l0.1,2l7.3,0.1l7.3,0.1l-1,0.4c-0.5,0.3-1.1,0.5-1.3,0.5c-0.2,0-0.7,0.1-1.2,0.3c-0.5,0.1-1.4,0.4-2.1,0.6
		c-1.5,0.4-3.1,0.8-4.3,1.2c-0.5,0.1-1.5,0.4-2.2,0.6c-0.7,0.2-1.8,0.5-2.4,0.6c-1.9,0.5-3.2,0.9-4.3,1.2c-1.2,0.3-2.7,0.7-4.2,1.2
		c-0.6,0.2-1.6,0.4-2.3,0.6c-0.7,0.2-1.7,0.5-2.2,0.6c-0.5,0.1-1.5,0.4-2.2,0.6c-0.7,0.2-1.7,0.5-2.2,0.6c-0.5,0.1-1.5,0.4-2.2,0.6
		c-0.7,0.2-1.8,0.5-2.4,0.6c-0.6,0.2-1.6,0.4-2.1,0.6c-1.5,0.4-3,0.8-4.2,1.1c-0.6,0.2-1.6,0.4-2.3,0.6c-0.7,0.2-1.7,0.5-2.2,0.6
		c-0.5,0.1-1.5,0.4-2.2,0.6c-1.6,0.4-3.1,0.8-4.3,1.2c-0.5,0.1-1.5,0.4-2.2,0.6c-0.7,0.2-1.7,0.5-2.3,0.6c-3.2,0.9-3.9,1-7.6,0.9
		c-3.7,0-4.2-0.1-7.4-1c-0.6-0.2-1.7-0.7-2.4-1c-0.7-0.4-1.5-0.8-1.8-0.9c-0.3-0.2-1.4-1.1-2.4-2.2c-1.4-1.5-2-2.2-2.6-3.4
		c-1.3-2.7-1.7-4.5-1.9-7.6c-0.1-2.5,0.3-5.4,1.1-8.3c0.2-0.8,0.5-1.6,0.6-2c0.3-0.9,0.7-2,1.6-4c1.3-2.9,1.1-2.8-2.1,1.1
		c-3.9,4.8-6.5,8.5-9.7,13.5c-0.5,0.7-0.9,1.5-1,1.7c-0.1,0.2-0.3,0.6-0.5,0.9c-0.4,0.6-0.6,1-1.6,2.8C4.9,58,3.3,61.6,2.5,64.6
		c-0.8,2.6-0.9,3-1.2,4.5c-0.5,2.3-0.4,6.7,0.1,8.5C2.2,80.5,3,82,4.8,83.9c1.9,2,5.8,4.7,7.5,5.2c0.2,0.1,0.9,0.3,1.5,0.5
		c2.7,1,4.3,1.3,8.8,1.3c4.3,0,5.2-0.1,8.7-1c2-0.5,4.9-1.4,5.8-1.7c0.3-0.1,1-0.4,1.7-0.6c0.6-0.2,1.8-0.7,2.7-1
		c0.8-0.3,1.8-0.7,2.3-0.9c0.4-0.2,1.1-0.4,1.4-0.6c0.3-0.1,2.2-0.9,4.2-1.7c4.4-1.8,4.6-1.9,5.6-2.4c0.4-0.2,1.1-0.5,1.4-0.6
		c0.3-0.2,0.9-0.4,1.3-0.6c0.9-0.4,1.9-0.8,2.8-1.2c0.4-0.2,1-0.4,1.4-0.6c1-0.4,2-0.8,2.8-1.2c0.4-0.2,1-0.4,1.3-0.6
		c1.4-0.6,2.9-1.2,4.1-1.7c0.4-0.2,1.1-0.5,1.4-0.6c0.3-0.1,0.9-0.4,1.3-0.6c0.8-0.4,1.8-0.8,2.8-1.2c1.6-0.7,2.4-1,4.7-2
		c0.7-0.3,1.4-0.6,1.5-0.6c0.1,0,0.5-0.2,0.8-0.3c0.9-0.5,0.5-0.3,10.1-4.4c4.9-2.1,9-3.8,9.1-3.9c0.6-0.3,1.7-0.7,2.8-1.2
		c0.6-0.2,1.6-0.6,2.2-0.9c1.8-0.8,2.3-1,3-1.3c1.4-0.6,3.3-1.4,3.8-1.7c0.2-0.1,3.7-1.6,7.8-3.3c4.1-1.7,7.6-3.3,7.8-3.3
		c0.3-0.2,1.5-0.6,2.4-1c0.7-0.3,2.1-0.9,2.5-1.1c0.2-0.1,4-1.7,8.5-3.6s8.3-3.6,8.5-3.6c0.3-0.1,0.7-0.4,2.4-1
		c0.8-0.4,2.2-0.9,2.6-1.1c0.2-0.1,2.4-1.1,5-2.2c2.6-1.1,4.8-2.1,4.9-2.2c0.1-0.1,0.3-0.2,0.4-0.2s0.8-0.3,1.5-0.6
		c0.7-0.3,1.3-0.6,1.4-0.6c0.1,0,0.7-0.3,1.5-0.6c0.7-0.4,1.6-0.7,1.9-0.9c2.5-1.1,3-1.4,2.8-1.8c-0.2-0.3-0.7-0.3-1.9,0.1
		c-1.3,0.4-2.6,0.7-4.3,1.2c-0.7,0.2-1.7,0.5-2.2,0.6c-0.5,0.1-1.5,0.4-2.2,0.6c-0.7,0.2-1.7,0.5-2.2,0.6c-0.5,0.1-1.5,0.4-2.2,0.6
		c-0.7,0.2-1.7,0.5-2.3,0.6c-0.6,0.2-1.5,0.4-2.1,0.6c-0.6,0.2-1.6,0.4-2.3,0.6c-0.7,0.2-1.7,0.5-2.3,0.6c-2.9,0.8-4.9,1.4-6.4,1.7
		c-0.7,0.2-1.7,0.5-2.2,0.6c-0.5,0.1-1.5,0.4-2.2,0.6c-0.7,0.2-1.7,0.5-2.2,0.6c-0.5,0.1-1.5,0.4-2.2,0.6c-0.7,0.2-1.7,0.5-2.3,0.6
		c-0.6,0.2-1.5,0.4-2.1,0.6c-0.6,0.2-1.6,0.4-2.3,0.6c-2.6,0.7-3.5,0.9-3.9,1.1c-0.3,0.1-0.6,0.2-0.8,0.2c-0.4,0-0.4-0.1-0.3-0.6
		c0.1-0.3,0.3-0.8,0.4-1.1c0.1-0.3,0.3-0.7,0.3-1l0.1-0.5l-6.1-0.1c-3.8,0-6.2-0.1-6.3-0.3c-0.2-0.1-0.2-0.4-0.1-0.7
		c0.6-1.8,2.6-7.2,3.2-8.6c0.2-0.4,0.3-0.8,0.3-1c0-0.2,0.2-0.5,0.4-0.7c0.4-0.3,1.2-0.3,5.5-0.3c5.6,0,5.3,0.1,5.8-1.4
		c0.2-0.5,0.5-1.3,0.7-1.9c1.6-4.2,1.8-4.9,1.7-5.2c-0.1-0.3-0.7-0.3-5-0.3c-4,0-5-0.1-5-0.3c-0.1-0.3,1.7-5.4,2.8-7.9
		c0.2-0.4,0.3-0.8,0.3-0.9c0-0.6,1-0.7,6.3-0.7h5.3l0.3-0.7c0.2-0.4,0.4-0.9,0.5-1.2c0.1-0.3,0.4-1,0.6-1.6s0.5-1.3,0.6-1.6
		c0.1-0.3,0.4-1,0.6-1.6c0.2-0.6,0.4-1.1,0.3-1.2s-7.6-0.1-16.9-0.2c-15.8,0-16.8,0-17.2,0.3c-0.4,0.4-6.8,8-8.1,9.7
		c-0.4,0.5-0.9,1.1-1.1,1.4c-0.2,0.3-0.7,0.8-1,1.1c-0.7,0.8-1,0.5-0.6-0.4c0.2-0.4,0.4-1,0.6-1.5c1.1-3,1.2-3.3,2.4-6.2
		c0.5-1.3,1-2.7,1.2-3c0.4-0.8,0.4-1.1,0-1.3C97.2,0.1,94.7,0,91.9,0h-5.2L86.4,0.6z M114.7,2.7c-0.1,0.3-0.3,0.9-0.5,1.5
		c-0.2,0.6-0.5,1.3-0.6,1.6s-0.4,1-0.6,1.6s-0.5,1.3-0.6,1.6s-0.4,1-0.6,1.6c-0.2,0.6-0.5,1.3-0.6,1.6c-0.1,0.3-0.4,1-0.6,1.6
		c-0.2,0.6-0.5,1.3-0.6,1.6c-0.1,0.3-0.4,1-0.6,1.6c-0.2,0.6-0.5,1.3-0.6,1.6c-0.1,0.3-0.4,1-0.6,1.6c-0.2,0.6-0.5,1.3-0.6,1.6
		c-0.1,0.3-0.4,1-0.6,1.6c-0.2,0.6-0.5,1.3-0.6,1.6c-0.1,0.3-0.4,1-0.6,1.6c-0.2,0.6-0.5,1.3-0.6,1.6c-0.1,0.3-0.4,1-0.6,1.6
		c-0.2,0.6-0.5,1.3-0.6,1.6c-0.2,0.6-0.6,1.6-1.2,3.1c-0.2,0.6-0.5,1.3-0.6,1.6c-0.1,0.3-0.4,1-0.6,1.6c-0.2,0.6-0.5,1.3-0.6,1.6
		s-0.4,1-0.6,1.6c-0.2,0.6-0.5,1.4-0.6,1.7c-0.2,0.5-0.7,1-0.9,0.8c0,0-0.1-4.5-0.3-10s-0.3-10.6-0.3-11.4c-0.1-1.7-0.1-1.7,1.4-3.4
		c0.5-0.6,1.4-1.5,1.9-2.1c0.5-0.6,1.9-2.1,3-3.3s2.6-2.8,3.3-3.5c0.6-0.7,1.9-2.1,2.9-3.2c0.9-1,2.1-2.3,2.5-2.8
		C114.5,2.1,114.9,2,114.7,2.7z"/>
</g>
</svg>
