<?xml version="1.0" encoding="utf-8"?>
<!-- Generator: Adobe Illustrator 24.0.2, SVG Export Plug-In . SVG Version: 6.00 Build 0)  -->
<svg version="1.1" id="Capa_1" xmlns="http://www.w3.org/2000/svg" xmlns:xlink="http://www.w3.org/1999/xlink" x="0px" y="0px"
	 viewBox="0 0 131.7 90.9" style="enable-background:new 0 0 131.7 90.9;" xml:space="preserve">
<style type="text/css">
	.st0{stroke:#000000;stroke-width:5.3256;stroke-miterlimit:33.3341;}
	.st1{fill-rule:evenodd;clip-rule:evenodd;}
</style>
<g>
	<path d="M71.9,12c-0.4,0.1-0.8,1.6-1.6,2.4C69.7,15,69,15,68.6,15.6c-0.1,0.3-0.1,0.7-0.3,1.2c-0.3,0.9-1.4,1-1.4,1.9
		c0,1,1,1.2,1.8,1.9c0.6,0.6,0.7,1,1.5,1.2c0.7,0.2,1.7-0.6,2.5-0.3c0.8,0.2,1.4,0.4,1.6,1.2c0.1,0.7,0,1.8-0.9,1.7
		c-0.3,0-1.6-0.5-3.2-0.3c-1.9,0.2-4.1,0.8-4.4,3c-0.1,1.2,1.4,2.6,2.8,2.3c1-0.2,0.6-1.4,1.1-1.9c0.7-0.8,4.7,2.5,8.5,2.5
		c1.6,0,2.8-0.4,3.9-1.7c0.1-0.1,0.3-0.3,0.4-0.3c0.1,0,0.4,0.1,0.6,0.2c3,2.4,5.3,7.3,16.4,7.4c1.6,0,3.4,0.8,4.8,2.1
		c1.3,1.2,2.1,3.1,2.8,5c1.1,2.8,3.1,5.6,6.1,8.7c0.1,0.1,2.7,2.1,2.8,2.3c0,0,0.2,0.5,0.1,0.7c-0.1,1.9-0.3,7.2,3.6,7.4
		c1,0.1,0.7-0.6,0.7-1.1c0-1-0.2-1.9,0.3-2.8c0.7-1.3-1.4-1.9-1.4-4.7c0.1-2.1-1.7-1.8-2.6-3.4c-0.6-1-1-1.4-1-2.5
		c0.2-6.5-1.4-10.7-2.1-11.7c-0.6-0.8-1.1-1.1-0.6-1.4c3.3-2.2,4.1-4.3,4.1-4.3c1.8-4.2,3.4-8,5.6-9.6c0.4-0.3,1.6-1.2,2.3-1.5
		c2.1-1,3.2-1.6,3.7-2.1c1-0.9,1.7-2.8,0.8-4c-1.1-1.4-3.1-0.3-3.9,0.2c-6.1,3.6-7,10-9.1,13.8c-1.7,3-4.5,5.1-6.9,5.3
		c-1.9,0.1-3.9-0.2-5.8-1.1c-4.8-2.1-7.4-4.8-8-5.3c-1.3-1-11.3-10.9-19.5-11.3c0,0-1-2-1.2-2.1c-0.6-0.1-1.2,1.2-1.7,1.4
		C73,13.4,72.3,11.9,71.9,12 M36,70.9c-0.8,0-1.4-0.6-1.4-1.4V44h-8.3v28c0,1.4,1.1,2.5,2.5,2.5h14.6c1.4,0,2.5-1.1,2.5-2.5V44h-8.4
		v25.4C37.5,70.2,36.8,70.9,36,70.9 M64.1,44H51.4c-1.5,0-2.8,1.2-2.8,2.8v27.8H57V49.1c0-0.8,0.6-1.4,1.4-1.4
		c0.8,0,1.4,0.6,1.4,1.4v25.5h8.3V49.1c0-0.8,0.6-1.4,1.4-1.4c0.8,0,1.4,0.6,1.4,1.4v25.4h8.4V46.8c0-1.5-1.2-2.8-2.8-2.8H64.1z
		 M15.1,49.1c0-0.8-0.7-1.4-1.4-1.4h-1.4v15.4h1.4c0.8,0,1.4-0.6,1.4-1.4V49.1z M20.7,66.9h-8.5v7.6H3.9V44h16.8
		c1.5,0,2.7,1.2,2.7,2.8v17.3C23.5,65.6,22.2,66.9,20.7,66.9 M108.2,67.7c-1.7,0-3.1,1.4-3.1,3.2c0,1.8,1.4,3.2,3.2,3.2
		c1.7,0,3.1-1.4,3.1-3.2C111.3,69.1,110,67.7,108.2,67.7L108.2,67.7z M112,70.9c0,2.1-1.7,3.8-3.7,3.8c-2.1,0-3.7-1.7-3.7-3.8
		c0-2.1,1.7-3.8,3.7-3.8C110.3,67.1,112,68.8,112,70.9"/>
	<path d="M107.8,70.7c0.6,0,0.9-0.2,0.9-0.6c0-0.3-0.3-0.6-0.9-0.6h-0.1v1.2C107.7,70.7,107.8,70.7,107.8,70.7z M110,73.1h-1
		l-1.2-1.7v1.7h-0.8v-4.3h0.8c1.2,0,1.8,0.4,1.8,1.3c0,0.6-0.3,1-0.9,1.2h-0.1L110,73.1z M93.5,63.1v-14c0-0.8-0.6-1.4-1.4-1.4
		c-0.8,0-1.4,0.6-1.4,1.4v14H93.5z M93.5,74.5v-7.6h-2.8v7.6h-8.4V46.8c0-1.5,1.2-2.8,2.8-2.8h14.1c1.5,0,2.8,1.2,2.8,2.8v27.8
		L93.5,74.5z"/>
</g>
</svg>
