<?xml version="1.0" encoding="utf-8"?>
<!-- Generator: Adobe Illustrator 24.0.2, SVG Export Plug-In . SVG Version: 6.00 Build 0)  -->
<svg version="1.1" id="Capa_1" xmlns="http://www.w3.org/2000/svg" xmlns:xlink="http://www.w3.org/1999/xlink" x="0px" y="0px"
	 viewBox="0 0 183.6 100.7" style="enable-background:new 0 0 183.6 100.7;" xml:space="preserve">
<g>
	<path d="M98.9,1.6c-0.6,0.1-1.2,2.3-2.3,3.5c-0.8,0.8-1.9,0.8-2.5,1.8c-0.2,0.4-0.1,1-0.4,1.7c-0.5,1.3-2.1,1.4-2.1,2.7
		c0,1.5,1.4,1.8,2.6,2.8c0.9,0.8,1,1.4,2.2,1.8c1,0.3,2.4-0.8,3.7-0.4c1.1,0.3,2.1,0.6,2.3,1.7c0.2,1,0,2.6-1.3,2.4
		c-0.4,0-2.3-0.7-4.7-0.4c-2.8,0.3-6,1.2-6.4,4.4c-0.2,1.8,2,3.8,4.1,3.4c1.5-0.3,0.8-2,1.6-2.8c1-1.1,6.9,3.7,12.4,3.7
		c2.3,0,4-0.6,5.7-2.4c0.2-0.1,0.4-0.4,0.6-0.4c0.2,0,0.6,0.2,0.8,0.3c4.4,3.5,7.7,10.6,23.9,10.7c2.3,0,4.9,1.1,7,3
		c1.9,1.7,3,4.5,4.1,7.2c1.6,4.1,4.5,8.1,8.9,12.6c0.2,0.2,3.9,3.1,4.1,3.3c0,0,0.3,0.7,0.2,1c-0.1,2.7-0.5,10.5,5.3,10.8
		c1.4,0.1,1-0.9,1-1.6c0-1.4-0.3-2.7,0.5-4.1c1-1.9-2.1-2.8-2-6.9c0.1-3.1-2.5-2.6-3.8-4.9c-0.8-1.4-1.4-2.1-1.4-3.7
		c0.3-9.4-2-15.5-3.1-17c-0.9-1.1-1.6-1.6-0.8-2.1c4.8-3.2,5.9-6.2,5.9-6.2c2.6-6.1,4.9-11.6,8.1-14c0.6-0.5,2.3-1.7,3.3-2.2
		c3-1.4,4.6-2.3,5.4-3.1c1.4-1.3,2.5-4.1,1.1-5.8c-1.6-2.1-4.5-0.4-5.7,0.3c-8.9,5.3-10.2,14.6-13.3,20c-2.5,4.3-6.5,7.4-10,7.7
		c-2.7,0.2-5.6-0.3-8.5-1.6c-7-3.1-10.8-7-11.7-7.7c-1.9-1.5-16.5-15.8-28.3-16.4c0,0-1.5-2.9-1.8-3c-0.9-0.1-1.8,1.8-2.4,2
		C100.5,3.7,99.5,1.5,98.9,1.6 M46.8,87.2c-1.1,0-2.1-0.9-2.1-2.1l0-36.9H32.6v40.7c0,2,1.6,3.6,3.6,3.6h21.3c2,0,3.6-1.6,3.6-3.6
		V48.2H48.9l0,36.9C48.9,86.3,47.9,87.2,46.8,87.2 M87.6,48.2H69.1c-2.2,0-4,1.8-4,4v40.4h12.2v-37c0-1.1,0.9-2,2.1-2
		c1.1,0,2,0.9,2.1,2v37.1h12.1V55.5c0-1.1,0.9-2,2.1-2c1.1,0,2.1,0.9,2.1,2v37h12.2V52.2c0-2.2-1.8-4-4-4L87.6,48.2z M16.3,55.6
		c0-1.2-1-2.1-2.1-2.1h-2.1v22.4h2.1c1.1,0,2.1-0.9,2.1-2.1V55.6z M24.5,81.4H12.2v11.1H0V48.2h24.5c2.2,0,3.9,1.8,3.9,4v25.2
		C28.5,79.6,26.7,81.4,24.5,81.4 M151.7,82.6c-2.4,0-4.5,2.1-4.5,4.7c0,2.6,2.1,4.7,4.6,4.7c2.5,0,4.5-2.1,4.5-4.7
		C156.3,84.7,154.3,82.6,151.7,82.6L151.7,82.6z M157.2,87.3c0,3-2.4,5.5-5.4,5.5c-3,0-5.4-2.4-5.4-5.5c0-3,2.4-5.5,5.4-5.5
		C154.8,81.8,157.2,84.2,157.2,87.3"/>
	<path d="M151.2,86.9c0.8,0,1.3-0.3,1.3-0.9c0-0.5-0.4-0.8-1.3-0.8H151v1.7H151.2z M154.3,90.4h-1.5L151,88v2.5h-1.2v-6.3h1.2
		c1.7,0,2.6,0.6,2.6,1.9c0,0.8-0.5,1.5-1.3,1.8l-0.1,0L154.3,90.4z M130.4,75.9V55.5c0-1.1-0.9-2-2.1-2c-1.1,0-2.1,0.9-2.1,2v20.4
		L130.4,75.9z M130.4,92.5V81.4h-4.1v11.1h-12.2V52.2c0-2.2,1.8-4,4-4h20.5c2.2,0,4,1.8,4,4v40.4L130.4,92.5z"/>
</g>
</svg>
