<?xml version="1.0" encoding="utf-8"?>
<!-- Generator: Adobe Illustrator 24.0.2, SVG Export Plug-In . SVG Version: 6.00 Build 0)  -->
<svg version="1.1" id="Capa_1" xmlns="http://www.w3.org/2000/svg" xmlns:xlink="http://www.w3.org/1999/xlink" x="0px" y="0px"
	 viewBox="0 0 131.7 90.9" style="enable-background:new 0 0 131.7 90.9;" xml:space="preserve">
<style type="text/css">
	.st0{stroke:#000000;stroke-width:5.3256;stroke-miterlimit:33.3341;}
	.st1{fill-rule:evenodd;clip-rule:evenodd;}
</style>
<path d="M4,17c4.2,0,8.5,0,12.7,0c2.2,0,4.4,0.8,5.9,2.3c1.3,1.2,2.1,3,2.1,4.8c0.1,1.7-0.5,3.3-1.5,4.6c-0.8,1-2.1,1.8-3.3,2.2
	c1.3,0.3,2.6,1.1,3.4,2.3c0.6,0.9,0.8,1.9,0.8,3c0,1.9,0,3.9,0,5.8c-1.8,0-3.6,0-5.4,0c0-1.5,0-3.1,0-4.6c-0.1-1.1-0.3-2.3-1.1-3.1
	c-0.8-0.8-2.1-1.1-3.2-1.2c-1.2,0-2.4,0-3.7,0c0-1.5,0-2.9,0-4.4c1.7,0,3.5,0,5.3,0c1.2,0,2.4-0.8,2.9-1.9c0.7-1.5,0.5-3.5-0.8-4.6
	c-0.8-0.6-1.7-0.8-2.6-0.8c-2.1,0-4.4,0-6.5,0c0,5.3,0,10.6,0,16H4C4,30.6,4,23.8,4,17z M68.5,17c1.7,0,3.5,0,5.3,0
	c0,5.4,0,10.8,0,16.2c1.3,0,2.7,0,4,0c1.7,0,3.2-1.5,3.5-3.2c0.3-1.8-1-3.7-2.8-4.1c-1-0.1-1.9,0-2.9-0.1c0-1.5,0-2.9,0-4.4
	c1.1,0,2.3,0,3.4,0c2.4-0.1,4.7,1.2,6.1,3.1c1.4,1.9,1.9,4.4,1.4,6.7c-0.6,2.8-3.1,5-5.8,5.9c-1.4,0.4-2.8,0.4-4.3,0.4h-7.8
	C68.5,30.6,68.5,23.8,68.5,17z M109.8,17c1.8,0,3.5,0,5.3,0c0,3.2,0,6.5,0,9.8c1.1-0.1,2.2,0.1,3.3-0.1c1-0.2,1.9-1,2.2-2
	c0.4-1,0.4-2.1,0.4-3.2c1.7,0,3.5,0,5.2,0c-0.1,1.7,0,3.5-0.9,5c-0.8,1.3-2.2,2.1-3.6,2.5c1.7,0.5,3.2,1.5,4,3
	c0.8,1.7,0.6,3.7,0.6,5.5h-5.3c-0.1-1.5,0.3-3.2-0.5-4.6c-0.6-1.2-1.9-1.7-3.2-1.8c-0.8,0-1.6,0-2.4,0c0,2.1,0,4.2,0,6.4
	c-1.8,0-3.5,0-5.3,0C109.8,30.6,109.8,23.8,109.8,17z M95.7,21.4c2.6-0.5,5.4-0.2,7.7,1c1.8,1,3.2,2.6,3.8,4.6
	c0.7,2.4,0.4,5.2-1,7.3c-1.2,1.8-3.2,3-5.3,3.5c-2.5,0.6-5.1,0.3-7.4-0.7c-2.2-1-4-3-4.6-5.4c-0.6-2.4-0.1-5.2,1.5-7.2
	C91.6,22.8,93.6,21.8,95.7,21.4 M97,25.5c-1.9,0.5-3.3,2.4-3.2,4.4c0.1,1.4,0.9,2.7,2.1,3.5c1.2,0.8,2.8,0.8,4,0.2
	c1.9-0.9,3-3.4,2.1-5.4C101.4,26.1,99,24.9,97,25.5z M27.8,25.2c1.4-2.2,3.9-3.7,6.5-3.7c3.4,0,6.8,0,10.2,0c0,1.6,0.1,3.1-0.1,4.7
	c-1.1,1.8-2.2,3.5-3.4,5.3c-1.7,0-3.4,0-5,0c1.1-1.9,2.2-3.7,3.3-5.6c-1.4,0-2.7,0-4.1,0c-1.2-0.1-2.4,0.7-3,1.7
	c-0.8,1.2-0.7,2.9,0.1,4c0.7,1,1.9,1.6,3.1,1.5c3,0,6,0,9.1,0c0,1.5,0,2.9,0,4.4c-2.9,0-5.8,0-8.7,0c-1.2,0-2.4,0-3.6-0.3
	c-2.3-0.7-4.2-2.4-5-4.6C26.2,30.2,26.4,27.4,27.8,25.2z M50.3,23c1.3-1,3-1.5,4.6-1.5c3.3,0,6.7,0,10,0c0,1.6,0,3.1,0,4.7
	c-1.1,1.7-2.3,3.5-3.4,5.3c-1.7,0-3.4,0-5,0c1.1-1.9,2.2-3.7,3.3-5.6c-1.5,0-3,0-4.5,0c-2,0.1-3.5,2.2-3.2,4.1
	c0.2,1.7,1.7,3.1,3.5,3.2c3.1,0,6.2,0,9.3,0c0,1.5,0,2.9,0,4.4c-3.4,0-6.7,0-10.1,0c-2.1,0-4.1-0.8-5.6-2.4
	c-1.7-1.7-2.6-4.1-2.4-6.5C47.2,26.4,48.5,24.4,50.3,23z M92,48.4c11.5-1.2,23-2.1,34.5-2.9c-6.2,1.6-12.5,3.1-18.7,4.9
	c-8.6,2.5-17.1,5.6-25.4,9c-4.4-2.6-8.8-5.1-13.1-7.7C76.8,50.3,84.4,49.3,92,48.4L92,48.4z M8.9,46.2c14.4,0,28.8,0,43.1,0
	c3.1,1.6,6.2,3.4,9.2,5.1c11.9,6.8,23.6,13.8,35.4,20.7c2.8,1.7,5.7,3.4,8.4,5.1c0.6,0.4,1.2,0.8,1.8,1.2
	c-12.7-5.3-25.2-10.9-38.1-15.8c-10.9-4.1-22.1-7.7-33.5-10.6c-6.3-1.6-12.7-3-19-4.3C13.8,47.2,11.4,46.8,8.9,46.2L8.9,46.2z
	 M24.7,67.2c5.9-3.9,12.6-6.8,19.3-9.2c4,1.1,8,2.4,11.9,3.7c-5.3,2.1-10.3,4.7-14.8,8.1c-2.9,2.2-5.7,4.6-7.9,7.5
	c-6.5,0-13,0-19.5,0C16.7,73.4,20.5,70,24.7,67.2L24.7,67.2z M44.6,72.9c4.5-4.1,9.7-7.3,15.3-9.7c3.1,1.1,6.2,2.3,9.3,3.5
	c-2.7,1.9-5.3,3.9-7.5,6.3c-1.3,1.4-2.4,2.9-3.5,4.4c-5.9,0-11.8,0-17.6,0C41.7,75.7,43.1,74.3,44.6,72.9L44.6,72.9z"/>
</svg>
