<?xml version="1.0" encoding="utf-8"?>
<!-- Generator: Adobe Illustrator 24.0.2, SVG Export Plug-In . SVG Version: 6.00 Build 0)  -->
<svg version="1.1" id="Capa_1" xmlns="http://www.w3.org/2000/svg" xmlns:xlink="http://www.w3.org/1999/xlink" x="0px" y="0px"
	 viewBox="0 0 177.3 89" style="enable-background:new 0 0 177.3 89;" xml:space="preserve">
<path d="M0,0c6.1,0,12.3,0,18.4,0c3.2,0,6.3,1.2,8.6,3.3c1.9,1.8,3.1,4.3,3.1,7c0.1,2.4-0.7,4.8-2.2,6.7c-1.2,1.5-3,2.6-4.8,3.2
	c1.9,0.5,3.7,1.6,4.9,3.3c0.9,1.3,1.2,2.8,1.2,4.3c0,2.8,0,5.6,0,8.4c-2.6,0-5.2,0-7.8,0c0-2.2,0-4.5,0-6.7
	c-0.1-1.6-0.4-3.3-1.6-4.5c-1.2-1.2-3-1.6-4.7-1.7c-1.8,0-3.5,0-5.3,0c0-2.1,0-4.2,0-6.3c2.5,0,5.1,0,7.6,0c1.8,0,3.5-1.1,4.2-2.7
	c1-2.1,0.7-5-1.1-6.6c-1.1-0.9-2.5-1.2-3.8-1.2c-3.1,0-6.3,0-9.4,0c0,7.7,0,15.4,0,23.1H0C0,19.8,0,9.9,0,0z M93.3,0
	c2.5,0,5.1,0,7.6,0c0,7.8,0,15.6,0,23.4c1.9,0,3.9,0,5.8,0c2.5,0,4.7-2.1,5-4.6c0.4-2.6-1.4-5.4-4-5.9c-1.4-0.2-2.8,0-4.2-0.1
	c0-2.1,0-4.2,0-6.3c1.6,0,3.3,0,4.9,0c3.4-0.1,6.8,1.7,8.8,4.5c2,2.7,2.7,6.3,2,9.7c-0.9,4.1-4.5,7.3-8.4,8.5
	c-2,0.6-4.1,0.6-6.2,0.6H93.3C93.3,19.8,93.3,9.9,93.3,0z M153.1,0c2.6,0,5.1,0,7.7,0c0,4.7,0,9.4,0,14.2c1.6-0.1,3.2,0.1,4.8-0.2
	c1.5-0.3,2.7-1.5,3.2-2.9c0.6-1.5,0.6-3.1,0.6-4.7c2.5,0,5,0,7.5,0c-0.1,2.4,0,5.1-1.3,7.2c-1.1,1.9-3.2,3-5.2,3.6
	c2.4,0.7,4.7,2.1,5.8,4.4c1.2,2.5,0.8,5.3,0.9,7.9h-7.6c-0.1-2.2,0.5-4.6-0.7-6.6c-0.9-1.7-2.8-2.5-4.6-2.6c-1.1,0-2.3,0-3.4,0
	c0,3.1,0,6.1,0,9.2c-2.6,0-5.1,0-7.7,0C153.1,19.8,153.1,9.9,153.1,0z M132.7,6.5c3.8-0.7,7.8-0.3,11.2,1.5c2.6,1.4,4.6,3.8,5.5,6.6
	c1,3.5,0.6,7.5-1.5,10.5c-1.8,2.6-4.7,4.3-7.7,5c-3.6,0.8-7.4,0.5-10.7-1c-3.2-1.5-5.8-4.3-6.6-7.8c-0.9-3.5-0.2-7.5,2.1-10.4
	C126.8,8.5,129.7,7,132.7,6.5 M134.5,12.4c-2.7,0.7-4.8,3.4-4.6,6.3c0.1,2,1.3,3.9,3,5c1.7,1.1,4,1.2,5.8,0.3
	c2.8-1.3,4.3-4.9,3.1-7.8C140.9,13.2,137.5,11.5,134.5,12.4z M34.5,12c2-3.2,5.7-5.3,9.4-5.4c4.9,0,9.9,0,14.8,0
	c0,2.3,0.1,4.5-0.1,6.8c-1.6,2.6-3.2,5.1-4.9,7.6c-2.4,0-4.9,0-7.3,0c1.6-2.7,3.2-5.4,4.8-8.1c-2,0-3.9,0-5.9,0
	c-1.8-0.1-3.5,1-4.4,2.5c-1.1,1.8-1,4.2,0.2,5.8c1,1.4,2.7,2.3,4.5,2.2c4.4,0,8.7,0,13.1,0c0,2.1,0,4.2,0,6.3c-4.2,0-8.4,0-12.6,0
	c-1.7,0-3.5,0-5.2-0.5c-3.3-1-6.1-3.5-7.3-6.7C32.2,19.1,32.5,15.1,34.5,12z M67,8.8c1.9-1.5,4.3-2.2,6.7-2.2c4.8,0,9.7,0,14.5,0
	c0,2.3,0,4.5,0,6.8c-1.6,2.5-3.3,5.1-4.9,7.6c-2.4,0-4.9,0-7.3,0c1.6-2.7,3.2-5.4,4.8-8.1c-2.2,0-4.3,0-6.5,0
	c-2.9,0.2-5.1,3.2-4.6,6c0.3,2.4,2.5,4.5,5,4.6c4.5,0,9,0,13.5,0c0,2.1,0,4.2,0,6.3c-4.9,0-9.7,0-14.6,0c-3,0-6-1.2-8.1-3.4
	c-2.5-2.4-3.7-6-3.4-9.4C62.6,13.7,64.4,10.7,67,8.8z M127.3,45.5c16.6-1.8,33.3-3.1,49.9-4.2c-9,2.3-18.1,4.5-27,7.1
	c-12.5,3.6-24.8,8.1-36.8,13c-6.3-3.7-12.7-7.4-19-11.2C105.3,48.2,116.3,46.8,127.3,45.5L127.3,45.5z M7.2,42.3
	c20.8,0,41.6,0,62.3,0c4.5,2.3,8.9,4.9,13.3,7.4c17.2,9.9,34.2,19.9,51.2,30c4.1,2.4,8.2,4.9,12.2,7.4c0.9,0.6,1.8,1.1,2.6,1.8
	c-18.4-7.7-36.5-15.8-55.1-22.9C78,60,61.8,54.8,45.3,50.6c-9.1-2.3-18.3-4.4-27.5-6.2C14.3,43.7,10.8,43.1,7.2,42.3L7.2,42.3z
	 M30,72.7c8.6-5.7,18.2-9.8,27.9-13.3c5.8,1.6,11.5,3.5,17.2,5.3c-7.6,3-14.9,6.8-21.4,11.7c-4.2,3.2-8.2,6.6-11.4,10.8
	c-9.4,0-18.8,0-28.2,0C18.5,81.6,24,76.7,30,72.7L30,72.7z M58.8,80.9c6.5-5.9,14.1-10.6,22.1-14.1c4.5,1.6,9,3.3,13.5,5
	c-3.9,2.8-7.7,5.6-10.9,9.1c-1.9,2-3.5,4.2-5,6.4c-8.5,0-17,0-25.5,0C54.6,84.9,56.6,82.9,58.8,80.9L58.8,80.9z"/>
</svg>
