<?xml version="1.0" encoding="utf-8"?>
<!-- Generator: Adobe Illustrator 24.0.2, SVG Export Plug-In . SVG Version: 6.00 Build 0)  -->
<svg version="1.1" id="Capa_1" xmlns="http://www.w3.org/2000/svg" xmlns:xlink="http://www.w3.org/1999/xlink" x="0px" y="0px"
	 viewBox="0 0 131.7 90.9" style="enable-background:new 0 0 131.7 90.9;" xml:space="preserve">
<style type="text/css">
	.st0{stroke:#000000;stroke-width:5.3256;stroke-miterlimit:33.3341;}
	.st1{fill-rule:evenodd;clip-rule:evenodd;}
</style>
<g>
	<path d="M7,64.3H5.1l-0.4-4.2h2L7,64.3z M124.3,64.3h2l0.3-4.2h-2L124.3,64.3z M3.5,60.2H1.6L2,64.3h2L3.5,60.2z M127.4,64.3h2
		l0.3-4.2h-2L127.4,64.3z M16.8,65.3c0.1,1.4-1,2.7-2.5,2.7c-0.1,0-0.1,0-0.1,0c-1.4,0-2.7-1.2-2.7-2.7v-0.1l0,0
		c0-1.4,1-2.7,2.6-2.7C15.6,62.6,16.8,63.8,16.8,65.3L16.8,65.3L16.8,65.3 M8.6,65.3c0,3,2.4,5.3,5.6,5.3s5.6-2.4,5.6-5.3l0,0
		c0-3-2.4-5.3-5.6-5.3S8.6,62.4,8.6,65.3L8.6,65.3 M21.5,70.4h2.9v-3.6h4.9v-2.3h-4.9v-1.7h5.4v-2.5h-8.3V70.4L21.5,70.4z
		 M31.5,70.4h2.9v-3.6h4.9v-2.3h-4.9v-1.7h5.4v-2.5h-8.3V70.4L31.5,70.4z M47.8,70.4h2.9v-7.7h3.1v-2.5h-9.1v2.5h3.1V70.4L47.8,70.4
		z M55.7,70.4h2.9v-3.9h3.7v3.9h2.9V60.2h-2.9V64h-3.7v-3.8h-2.9V70.4L55.7,70.4z M67,70.4h8.4V68h-5.6v-1.6h5v-2.2h-5v-1.6h5.5
		v-2.4H67V70.4L67,70.4z M83.4,70.5h2.5l2.1-5.8l2.1,5.8h2.5L96,60.2h-3l-1.8,5.9l-2-6h-2.5l-2,5.9l-1.8-5.9h-3L83.4,70.5z
		 M99.3,66.4l1.2-2.9l1.2,2.9H99.3L99.3,66.4z M94.8,70.4h3l0.8-1.8h4l0.8,1.8h3.1l-4.4-10.2h-2.8L94.8,70.4z M107.7,70.4h7.9v-2.5
		h-5v-7.7h-2.9V70.4L107.7,70.4z M117.1,70.4h7.9v-2.5h-5v-7.7h-2.9L117.1,70.4L117.1,70.4z"/>
	<path d="M112.6,34.6h-5.6c-0.5-1.4-1.2-2.4-4.3-2.4c-2.1,0-3.1,0.9-3.1,1.8c0,1,0.8,1.8,3.1,2.3l5,1.3c3.3,0.9,4.9,3.5,4.9,6.2
		c0,1.6-0.3,3.4-1.8,4.9c-1.1,1.2-2.7,2.7-8.2,2.7c-7.5,0-10-4.7-10-7.6h5.8c0.6,2.1,2,2.9,4.9,2.9c2,0,3.7-0.7,3.7-2.2
		c0-1.4-1.2-2-2.8-2.4l-4-1.1c-1.9-0.6-3.5-1-4.7-2c-3-2.5-2.8-7.1,0.5-9.4c1.8-1.3,3.6-2,6.5-2c3.4,0,5.4,1,6.9,2
		C111,30.5,112.6,32.8,112.6,34.6 M18.6,18.5c0.1,0.2,11.6,32.7,11.6,32.7h6.9l10.6-27h66.2l0.5-5.7H42.8l-8.9,22.4L26,18.5H18.6
		 M75.9,39.5l8.6,11.7H90V28h-6.2v12.6L75.9,28h-6v23.1h6L75.9,39.5L75.9,39.5z M114.8,50c0-0.7-0.6-1.2-1.2-1.2
		c-0.6,0-1.2,0.6-1.2,1.2c0,0.7,0.6,1.2,1.2,1.2C114.3,51.2,114.8,50.7,114.8,50L114.8,50L114.8,50z M114.7,50
		c0,0.6-0.5,1.1-1.1,1.1c-0.6,0-1.1-0.5-1.1-1.1c0-0.6,0.5-1.1,1.1-1.1C114.2,48.9,114.7,49.3,114.7,50L114.7,50L114.7,50z
		 M114.2,49.7c0-0.2-0.2-0.5-0.5-0.5h-0.1h-0.6v1.3h0.3v-0.4h0.2l0.3,0.4h0.3l-0.3-0.5C114.1,50.1,114.2,49.9,114.2,49.7L114.2,49.7
		z M113.9,49.7c0,0.1-0.1,0.2-0.2,0.2c0,0,0,0-0.1,0h-0.3v-0.4h0.3C113.8,49.5,113.8,49.6,113.9,49.7
		C113.9,49.7,113.9,49.7,113.9,49.7L113.9,49.7z M42.9,51.2h6.7l1.2-3.6h8.8l1.3,3.6h6.5L59,28h-7L42.9,51.2z M52.6,43.4l2.5-7.7
		l2.6,7.7H52.6L52.6,43.4z"/>
</g>
</svg>
