<?xml version="1.0" encoding="utf-8"?>
<!-- Generator: Adobe Illustrator 24.0.2, SVG Export Plug-In . SVG Version: 6.00 Build 0)  -->
<svg version="1.1" id="Layer_1" xmlns="http://www.w3.org/2000/svg" xmlns:xlink="http://www.w3.org/1999/xlink" x="0px" y="0px"
	 viewBox="0 0 221.3 90" style="enable-background:new 0 0 221.3 90;" xml:space="preserve">
<title>vans-logo</title>
<g>
	<path d="M9.3,79.2H6L5.3,72h3.4L9.3,79.2z M212,79.2h3.4L216,72h-3.4L212,79.2z M3.3,72H0l0.6,7.2H4L3.3,72z M217.4,79.2h3.4
		l0.6-7.2H218L217.4,79.2z M26.3,80.9c0.1,2.5-1.8,4.6-4.3,4.7c-0.1,0-0.1,0-0.2,0c-2.5,0-4.6-2.1-4.6-4.6c0,0,0-0.1,0-0.1v0
		c0-2.5,1.8-4.7,4.5-4.7c2.5,0,4.6,2.1,4.6,4.6C26.3,80.8,26.3,80.9,26.3,80.9L26.3,80.9 M12,80.9c0,5.1,4.1,9.1,9.6,9.1
		s9.7-4.1,9.7-9.2v0c0-5.1-4.1-9.1-9.6-9.1S12,75.8,12,80.9L12,80.9 M34.4,89.7h5v-6.3h8.5v-4h-8.5v-3h9.4v-4.3H34.4L34.4,89.7
		L34.4,89.7z M51.6,89.7h5v-6.3H65v-4h-8.5v-3h9.4v-4.3H51.6L51.6,89.7L51.6,89.7z M79.9,89.7h5V76.4h5.4v-4.3H74.5v4.3h5.4
		L79.9,89.7L79.9,89.7z M93.5,89.7h5V83h6.4v6.7h5V72.1h-5v6.6h-6.4v-6.6h-5V89.7L93.5,89.7z M113.1,89.7h14.5v-4.1H118v-2.8h8.6
		v-3.8H118v-2.7h9.5v-4.1h-14.4L113.1,89.7L113.1,89.7z M141.3,89.8h4.3l3.6-10.1l3.6,10.1h4.3l6-17.7H158l-3.1,10.2L151.4,72h-4.3
		l-3.5,10.2l-3.1-10.2h-5.2L141.3,89.8z M168.9,82.8l2-5l2,5H168.9L168.9,82.8z M161,89.7h5.2l1.3-3.1h6.9l1.3,3.1h5.3L173.4,72
		h-4.8L161,89.7z M183.3,89.7H197v-4.3h-8.7V72.1h-5L183.3,89.7L183.3,89.7z M199.7,89.7h13.6v-4.3h-8.7V72.1h-5L199.7,89.7
		L199.7,89.7z"/>
	<path d="M191.9,27.8h-9.6c-0.9-2.4-2-4.2-7.4-4.2c-3.7,0-5.3,1.5-5.3,3.1c0,1.7,1.3,3.1,5.4,4l8.7,2.3c5.7,1.5,8.5,6.1,8.5,10.8
		c0,2.7-0.6,5.9-3.1,8.5c-1.9,2-4.7,4.6-14.2,4.6c-13,0-17.3-8.2-17.3-13.2h10.1c1,3.6,3.5,5,8.4,5c3.4,0,6.4-1.2,6.4-3.8
		c0-2.5-2.1-3.4-4.9-4.2l-6.9-1.9c-3.3-1-6.1-1.8-8.1-3.5c-5.1-4.3-4.8-12.2,0.8-16.3c3.1-2.3,6.3-3.4,11.3-3.4
		c5.9,0,9.3,1.7,11.9,3.5C189.1,20.8,191.8,24.7,191.9,27.8 M29.4,0c0.1,0.3,20.1,56.5,20.1,56.5h12L79.9,9.8h114.5l0.9-9.8H71.1
		L55.8,38.7L42.1,0L29.4,0 M128.4,36.3l14.9,20.2h9.4V16.5h-10.8v21.7l-13.5-21.7h-10.3v39.9h10.3V36.3L128.4,36.3z M195.7,54.4
		c0-1.2-1-2.1-2.1-2.1s-2.1,1-2.1,2.1c0,1.2,1,2.1,2.1,2.1C194.7,56.5,195.7,55.6,195.7,54.4C195.7,54.4,195.7,54.4,195.7,54.4
		L195.7,54.4z M195.5,54.4c0,1-0.8,1.9-1.9,1.9c-1,0-1.9-0.8-1.9-1.9c0-1,0.8-1.9,1.9-1.9C194.6,52.5,195.5,53.3,195.5,54.4
		C195.5,54.4,195.5,54.4,195.5,54.4L195.5,54.4z M194.6,53.9c0-0.4-0.3-0.8-0.8-0.8c0,0-0.1,0-0.1,0h-1v2.3h0.5v-0.7h0.4l0.5,0.7
		h0.6l-0.5-0.8C194.4,54.6,194.6,54.3,194.6,53.9L194.6,53.9z M194.1,54c0,0.2-0.1,0.3-0.3,0.3c0,0,0,0-0.1,0h-0.5v-0.7h0.5
		C193.9,53.6,194,53.7,194.1,54C194.1,53.9,194.1,53.9,194.1,54L194.1,54z M71.4,56.5h11.5l2.1-6.2h15.2l2.2,6.2h11.3L99.2,16.5
		H87.1L71.4,56.5z M88.2,43l4.4-13.3L97.1,43H88.2L88.2,43z"/>
</g>
</svg>
