<?xml version="1.0" encoding="utf-8"?>
<!-- Generator: Adobe Illustrator 24.0.2, SVG Export Plug-In . SVG Version: 6.00 Build 0)  -->
<svg version="1.1" id="Capa_1" xmlns="http://www.w3.org/2000/svg" xmlns:xlink="http://www.w3.org/1999/xlink" x="0px" y="0px"
	 viewBox="0 0 755.7 753.9" style="enable-background:new 0 0 755.7 753.9;" xml:space="preserve">
<style type="text/css">
	.st0{stroke:#000000;stroke-width:0.8161;stroke-miterlimit:10;}
	.st1{fill:#777474;stroke:#000000;stroke-miterlimit:10;}
	.st2{fill:#FFFFFF;stroke:#000000;stroke-miterlimit:10;}
	.st3{fill:none;stroke:#000000;stroke-width:23;stroke-miterlimit:10;}
	.st4{fill:#FFFFFF;}
</style>
<g>
	<path class="st0" d="M92,195.4c0-12.4,10-22.3,22.3-22.3h42.3c20.5,0,38.6,11.9,47.1,29.8h382.5c24.5,0,42.3,23.3,35.9,46.9
		L584,391.5c-7.9,29.2-34.4,49.6-64.7,49.6H250.8l5,26.5c2,10.5,11.3,18.1,22,18.1h268.3c12.4,0,22.3,10,22.3,22.3
		c0,12.4-10,22.3-22.3,22.3H277.8c-32.2,0-59.8-22.9-65.8-54.4l-48-252.2c-0.7-3.5-3.7-6-7.4-6h-42.3C101.9,217.7,92,207.8,92,195.4
		z M211.1,604.9c0-20.2,16.3-36.5,36.5-36.5s36.5,16.3,36.5,36.5s-16.3,36.5-36.5,36.5S211.1,625.1,211.1,604.9L211.1,604.9z
		 M495.2,604.9c0-20.2,16.3-36.5,36.5-36.5c20.2,0,36.5,16.3,36.5,36.5s-16.3,36.5-36.5,36.5C511.6,641.4,495.2,625.1,495.2,604.9
		L495.2,604.9z"/>
	<path class="st1" d="M202.6,236.9"/>
	<path class="st2" d="M231.7,357.2c13.1,53.9,58,48.1,58,48.1s98.5,0.5,182-0.5s81.1-33,81.1-33s21.5-83.1,27.7-108.5
		s-11.9-26.4-11.9-26.4H207.1l20.1,98.4L230,349L231.7,357.2L231.7,357.2"/>
</g>
<circle class="st3" cx="376.3" cy="376.8" r="363.3"/>
<path class="st4" d="M243.9,442.2c0,0,1.3,55.3,36.6,55.3c35.4,0,266.1,0,266.1,0s17.8,1.5,17.8,17.8c0,16.3-18.4,15-18.4,15
	l-264.8,0c-10,0-26.6-5.5-34.6-11.6c-12.6-9.8-23.4-22.8-25.3-32.4c-2.9-15.1-46.7-270.6-46.7-270.6l-18.1,2
	c0,0-10.4,203.3-8.5,210.1s70.4,112.8,70.4,112.8l131.1,12.5l208.3-5.8c0,0,64.4-23.1,65.4-26c1.1-2.9-15.3-83.9-15.3-83.9
	l71.4-168.8l-56.1-103.2c0,0-156.1-6.8-161.9-6.8c-5.8,0-131.1-3.9-139.8,0c-8.7,3.9-125.4,52.1-119.1,52.1s379.2-1.9,379.2-1.9
	s23.4,0,27.3,15.4c3.9,15.4-1,57.9-11.6,89.7s-18.3,82-34.7,98.4c-16.4,16.4-56.9,22.2-56.9,22.2l-205.4-1l-44.7-1l-12.2,1.9
	L243.9,442.2z"/>
<path class="st4" d="M188,188.7c0,0-6-8.3,4.3,6.9c10.3,15.2,10.3,15.2,10.3,15.2l36.3-17c0,0-20.9-33.7-22.2-33.7
	c-1.3,0-72-0.9-76.7,0s-49.3,9.9-48,13.1s-9,32.3-9,34.9s9,25.7,11.6,26.6c2.6,0.9,49.2,4.2,53.3,2.3c4.1-1.9,26.8-21.2,26.8-21.2
	l-33-0.4h-21.4c0,0-15.4-1.3-15.4-11.6c0-10.3,1.7-15.2,15.2-15.2s61.5,0.6,61.5,0.6l17.1-1.3"/>
</svg>
