<svg id="Capa_1" data-name="Capa 1" xmlns="http://www.w3.org/2000/svg" viewBox="0 0 179.49 153.55"><defs><style>.cls-1{fill:#fff;stroke:#fff;stroke-miterlimit:10;stroke-width:0.35px;}</style></defs><title>favorites</title><path class="cls-1" d="M85.37,24.73l3.89,4.2,4.2-4.19a50.86,50.86,0,0,1,43.91-14A50,50,0,0,1,179.14,60.1v2a52.39,52.39,0,0,1-16.65,38.32l-63.23,59a14.2,14.2,0,0,1-19.38,0l-63.23-59A52.43,52.43,0,0,1,0,62.13v-2A50,50,0,0,1,85.37,24.73Zm3.89,28L73.51,36.31a34,34,0,0,0-29-9A33.23,33.23,0,0,0,16.79,60.1v2a35.55,35.55,0,0,0,11.32,26l61.46,57.39,61.48-57.39a35.61,35.61,0,0,0,11.3-26v-2A33.25,33.25,0,0,0,134.6,27.33a34,34,0,0,0-29,9Z" transform="translate(0.17 -9.91)"/></svg>