<?xml version="1.0" encoding="utf-8"?>
<!-- Generator: Adobe Illustrator 24.0.2, SVG Export Plug-In . SVG Version: 6.00 Build 0)  -->
<svg version="1.1" id="Capa_1" xmlns="http://www.w3.org/2000/svg" xmlns:xlink="http://www.w3.org/1999/xlink" x="0px" y="0px"
	 viewBox="0 0 758.6 763.9" style="enable-background:new 0 0 758.6 763.9;" xml:space="preserve">
<style type="text/css">
	.st0{fill:none;stroke:#000000;stroke-width:23;stroke-miterlimit:10;}
	.st1{fill:#FFFFFF;}
</style>
<path d="M512.7,328.8c0,40.7-13.2,78.4-35.5,108.9l112.3,112.4c11.1,11.1,11.1,29.1,0,40.2c-11.1,11.1-29.1,11.1-40.2,0L437,477.9
	c-30.5,22.4-68.1,35.5-108.9,35.5c-102,0-184.6-82.6-184.6-184.6s82.6-184.6,184.6-184.6S512.7,226.9,512.7,328.8z M328.1,456.6
	c70.5,0,127.8-57.2,127.8-127.8S398.7,201,328.1,201s-127.8,57.2-127.8,127.8S257.6,456.6,328.1,456.6z"/>
<circle class="st0" cx="380.7" cy="381.9" r="363.3"/>
<circle class="st1" cx="328.1" cy="328.8" r="145.6"/>
</svg>
