<?xml version="1.0" encoding="utf-8"?>
<!-- Generator: Adobe Illustrator 24.0.2, SVG Export Plug-In . SVG Version: 6.00 Build 0)  -->
<svg version="1.1" id="Capa_1" xmlns="http://www.w3.org/2000/svg" xmlns:xlink="http://www.w3.org/1999/xlink" x="0px" y="0px"
	 viewBox="0 0 756 756" style="enable-background:new 0 0 756 756;" xml:space="preserve">
<style type="text/css">
	.st0{fill:none;stroke:#000000;stroke-width:23;stroke-miterlimit:10;}
	.st1{fill:#FFFFFF;}
</style>
<path d="M428.3,411.4h-96c-97.2,0-176,78.8-176,176c0,17.7,14.3,32,32,32h384c17.7,0,32-14.3,32-32
	C604.3,490.2,525.5,411.4,428.3,411.4z M205.3,571.4c7.9-63.1,61.8-112,127-112h96c65.2,0,119.1,49,127,112H205.3z M380.3,363.4
	c70.7,0,128-57.3,128-128s-57.3-128-128-128s-128,57.3-128,128C252.3,306.1,309.6,363.4,380.3,363.4z M380.3,155.4
	c44.1,0,80,35.9,80,80s-35.9,80-80,80s-80-35.9-80-80S336.2,155.4,380.3,155.4z"/>
<circle class="st0" cx="380.3" cy="377.8" r="363.3"/>
<path class="st1" d="M179.6,588.6c9-84.4,70.4-149.8,144.6-149.8h109.3c74.3,0,135.6,65.5,144.6,149.8H179.6z"/>
<circle class="st1" cx="378.9" cy="235.4" r="97.7"/>
</svg>
